<svg xmlns="http://www.w3.org/2000/svg" version="1.1" width="500px" height="500px" style="shape-rendering:geometricPrecision; text-rendering:geometricPrecision; image-rendering:optimizeQuality; fill-rule:evenodd; clip-rule:evenodd" xmlns:xlink="http://www.w3.org/1999/xlink">
<g><path style="opacity:0.89" fill="#e7e8e9" d="M 232.5,11.5 C 329.531,9.41926 403.698,49.0859 455,130.5C 497.215,207.95 498.215,285.95 458,364.5C 415.671,436.42 352.837,477.586 269.5,488C 176.843,491.918 103.676,456.418 50,381.5C 0.988789,301.397 -2.34454,219.397 40,135.5C 83.2772,62.0908 147.444,20.7574 232.5,11.5 Z M 282.5,26.5 C 296.635,28.4573 310.302,31.7906 323.5,36.5C 325.403,36.7959 327.07,37.4625 328.5,38.5C 331.257,39.5122 333.924,40.5122 336.5,41.5C 337.492,41.3284 338.158,41.6618 338.5,42.5C 340.153,42.6596 341.486,43.3263 342.5,44.5C 344.403,44.7959 346.07,45.4625 347.5,46.5C 349.434,47.1103 351.101,48.1103 352.5,49.5C 354.403,49.7959 356.07,50.4625 357.5,51.5C 356.453,52.0778 356.62,52.7445 358,53.5C 358.399,53.2716 358.565,52.9382 358.5,52.5C 361.669,53.9166 364.669,55.5832 367.5,57.5C 366.453,58.0778 366.62,58.7445 368,59.5C 368.399,59.2716 368.565,58.9382 368.5,58.5C 371.704,59.3833 374.371,61.0499 376.5,63.5C 378.537,64.8465 380.537,66.1798 382.5,67.5C 384.389,68.604 386.055,69.9373 387.5,71.5C 392.442,75.1028 397.108,79.1028 401.5,83.5C 405.167,86.5 408.5,89.8333 411.5,93.5C 413.5,94.8333 415.167,96.5 416.5,98.5C 420.565,102.559 424.232,106.893 427.5,111.5C 428.832,113.138 430.166,114.804 431.5,116.5C 430.167,116.833 430.167,117.167 431.5,117.5C 435.323,121.811 438.656,126.478 441.5,131.5C 440.167,131.833 440.167,132.167 441.5,132.5C 443.735,135.291 445.735,138.291 447.5,141.5C 448.748,143.299 449.748,145.133 450.5,147C 450.167,147.333 449.833,147.667 449.5,148C 450.338,149.155 451.338,150.322 452.5,151.5C 453.42,154.276 454.753,157.276 456.5,160.5C 455.167,160.833 455.167,161.167 456.5,161.5C 458.231,163.615 459.565,166.615 460.5,170.5C 460.833,171.833 461.167,173.167 461.5,174.5C 462.893,174.991 463.893,176.491 464.5,179C 464.167,179.333 463.833,179.667 463.5,180C 467.525,191.136 470.525,203.303 472.5,216.5C 473.21,218.893 473.877,221.393 474.5,224C 474.482,241.336 474.482,258.67 474.5,276C 473.877,278.607 473.21,281.107 472.5,283.5C 471.159,291.862 469.659,300.196 468,308.5C 466.334,307.66 466.167,308.16 467.5,310C 466.939,311.676 465.939,313.009 464.5,314C 464.5,316.333 464.5,318.667 464.5,321C 463.833,322.333 462.833,323.333 461.5,324C 462.584,326.19 461.917,327.856 459.5,329C 459.745,331.089 459.745,333.089 459.5,335C 458.934,335.995 458.267,336.828 457.5,337.5C 456.25,341.398 454.584,345.064 452.5,348.5C 450.404,352.078 448.737,355.412 447.5,358.5C 447.082,359.222 446.416,359.722 445.5,360C 445.833,360.333 446.167,360.667 446.5,361C 444.251,362.912 442.917,365.078 442.5,367.5C 440.488,370.205 438.488,372.872 436.5,375.5C 434.895,376.006 434.561,376.673 435.5,377.5C 434.737,379.368 433.737,381.035 432.5,382.5C 427.936,387.586 423.936,392.586 420.5,397.5C 419.833,398.833 418.833,399.833 417.5,400.5C 415.011,402.384 413.345,404.384 412.5,406.5C 411.922,405.453 411.256,405.62 410.5,407C 410.728,407.399 411.062,407.565 411.5,407.5C 410.5,409.167 409.167,410.5 407.5,411.5C 406.922,410.453 406.256,410.62 405.5,412C 405.728,412.399 406.062,412.565 406.5,412.5C 403.526,415.138 400.526,417.805 397.5,420.5C 396.922,419.453 396.256,419.62 395.5,421C 395.728,421.399 396.062,421.565 396.5,421.5C 394.858,422.803 393.191,424.136 391.5,425.5C 388.792,428.209 385.792,430.542 382.5,432.5C 380.777,434.218 378.777,435.551 376.5,436.5C 375.922,435.453 375.256,435.62 374.5,437C 374.728,437.399 375.062,437.565 375.5,437.5C 372.841,439.164 370.175,440.83 367.5,442.5C 366.035,443.737 364.368,444.737 362.5,445.5C 359.76,447.56 356.76,449.226 353.5,450.5C 353.158,451.338 352.492,451.672 351.5,451.5C 345.476,454.861 339.476,457.527 333.5,459.5C 331.396,460.912 329.063,461.912 326.5,462.5C 278.191,479.863 229.525,480.863 180.5,465.5C 177.443,464.367 174.443,463.367 171.5,462.5C 166.32,460.736 161.32,458.736 156.5,456.5C 150.182,454.008 144.182,451.008 138.5,447.5C 137.29,447.068 136.29,446.401 135.5,445.5C 132.296,444.617 129.629,442.95 127.5,440.5C 125.632,439.737 123.965,438.737 122.5,437.5C 117.214,434.212 112.214,430.546 107.5,426.5C 108.547,425.922 108.38,425.256 107,424.5C 106.601,424.728 106.435,425.062 106.5,425.5C 105.128,424.488 103.795,423.488 102.5,422.5C 103.547,421.922 103.38,421.256 102,420.5C 101.601,420.728 101.435,421.062 101.5,421.5C 99.8089,420.136 98.1423,418.803 96.5,417.5C 94.5,416.167 92.8333,414.5 91.5,412.5C 89.5,411.167 87.8333,409.5 86.5,407.5C 84.5,406.167 82.8333,404.5 81.5,402.5C 81.212,400.513 79.8787,398.846 77.5,397.5C 78.547,396.922 78.3803,396.256 77,395.5C 76.6012,395.728 76.4346,396.062 76.5,396.5C 75.5573,395.117 74.5573,393.784 73.5,392.5C 74.4387,391.673 74.1054,391.006 72.5,390.5C 68.6911,386.52 65.0244,382.354 61.5,378C 62.8331,376.16 62.6665,375.66 61,376.5C 59.513,375.747 59.3463,374.914 60.5,374C 57.5219,370.869 55.1886,367.369 53.5,363.5C 52.5987,362.71 51.9321,361.71 51.5,360.5C 50.6087,358.709 49.6087,356.876 48.5,355C 48.8333,354.667 49.1667,354.333 49.5,354C 47.3215,353.558 46.6548,352.558 47.5,351C 45.2769,347.992 43.6103,345.159 42.5,342.5C 40.5048,337.518 38.5048,332.518 36.5,327.5C 35.6322,324.551 34.6322,321.551 33.5,318.5C 31.3368,313.917 29.6701,308.083 28.5,301C 28.6448,300.228 28.9781,299.561 29.5,299C 26.9323,296.398 26.2656,293.398 27.5,290C 25.0032,287.517 24.3365,284.684 25.5,281.5C 21.1508,257.371 21.8175,233.538 27.5,210C 26.9415,209.275 26.6082,208.442 26.5,207.5C 29.6419,195.043 32.8085,183.376 36,172.5C 37.6665,173.34 37.8331,172.84 36.5,171C 38.3008,170.683 38.6341,170.016 37.5,169C 38.218,167.013 39.218,165.179 40.5,163.5C 39.4291,161.675 40.0958,160.508 42.5,160C 42.1667,159.667 41.8333,159.333 41.5,159C 43.4046,155.347 45.4046,151.847 47.5,148.5C 48.3382,148.158 48.6716,147.492 48.5,146.5C 49.8333,146.167 49.8333,145.833 48.5,145.5C 48.9334,142.809 50.2667,140.809 52.5,139.5C 53.3382,139.158 53.6716,138.492 53.5,137.5C 54.8333,137.167 54.8333,136.833 53.5,136.5C 54.7161,134.696 55.7161,133.029 56.5,131.5C 57.7768,129.088 59.4435,126.421 61.5,123.5C 63.515,120.885 65.1816,118.552 66.5,116.5C 69.7978,111.868 73.4645,107.534 77.5,103.5C 79.1054,102.994 79.4387,102.327 78.5,101.5C 81.1954,98.4744 83.8621,95.4744 86.5,92.5C 87.0778,93.547 87.7445,93.3803 88.5,92C 88.2716,91.6012 87.9382,91.4346 87.5,91.5C 88.5,89.8333 89.8333,88.5 91.5,87.5C 92.0778,88.547 92.7445,88.3803 93.5,87C 93.2716,86.6012 92.9382,86.4346 92.5,86.5C 94.4752,84.863 96.4752,83.1964 98.5,81.5C 99.1667,80.1667 100.167,79.1667 101.5,78.5C 106.476,74.5303 111.476,70.5303 116.5,66.5C 117.965,65.2632 119.632,64.2632 121.5,63.5C 122.078,64.547 122.744,64.3803 123.5,63C 123.272,62.6012 122.938,62.4346 122.5,62.5C 125.159,60.8365 127.825,59.1698 130.5,57.5C 131.078,58.547 131.744,58.3803 132.5,57C 132.272,56.6012 131.938,56.4346 131.5,56.5C 133.426,55.5139 135.426,54.5139 137.5,53.5C 138.29,52.5987 139.29,51.9321 140.5,51.5C 143.768,49.866 147.101,48.1993 150.5,46.5C 151.93,45.4625 153.597,44.7959 155.5,44.5C 155.842,43.6618 156.508,43.3284 157.5,43.5C 158.514,42.3263 159.847,41.6596 161.5,41.5C 170.809,37.4144 180.476,34.0811 190.5,31.5C 195.35,30.3767 200.35,29.3767 205.5,28.5C 206.919,27.5489 208.585,27.2155 210.5,27.5C 211.919,26.5489 213.585,26.2155 215.5,26.5C 237.833,23.8518 260.166,23.8518 282.5,26.5 Z M 259.5,104.5 C 255.931,103.811 252.431,102.811 249,101.5C 240.947,104.615 232.781,107.281 224.5,109.5C 228.724,107.221 233.057,105.221 237.5,103.5C 241.23,102.203 245.064,101.203 249,100.5C 252.84,101.165 256.34,102.499 259.5,104.5 Z M 259.5,104.5 C 262.539,105.01 265.539,105.677 268.5,106.5C 270.261,107.313 271.928,108.313 273.5,109.5C 272.5,109.5 271.5,109.5 270.5,109.5C 267.67,108.265 264.67,107.265 261.5,106.5C 260.833,105.833 260.167,105.167 259.5,104.5 Z M 224.5,109.5 C 221.2,111.642 217.533,112.975 213.5,113.5C 215.072,112.313 216.739,111.313 218.5,110.5C 220.5,110.167 222.5,109.833 224.5,109.5 Z M 273.5,109.5 C 274.5,109.5 275.5,109.5 276.5,109.5C 279.254,110.641 281.921,111.975 284.5,113.5C 282.139,113.326 279.806,112.993 277.5,112.5C 276.167,111.5 274.833,110.5 273.5,109.5 Z M 210.5,113.5 C 211.5,113.5 212.5,113.5 213.5,113.5C 212.22,114.931 210.553,115.598 208.5,115.5C 209.167,114.833 209.833,114.167 210.5,113.5 Z M 284.5,113.5 C 286.553,113.402 288.22,114.069 289.5,115.5C 288.5,115.5 287.5,115.5 286.5,115.5C 285.833,114.833 285.167,114.167 284.5,113.5 Z M 208.5,115.5 C 204.201,117.935 199.534,119.602 194.5,120.5C 196.833,119.167 199.167,117.833 201.5,116.5C 203.806,116.007 206.139,115.674 208.5,115.5 Z M 289.5,115.5 C 290.5,115.5 291.5,115.5 292.5,115.5C 292.833,115.5 293.167,115.5 293.5,115.5C 295.833,116.833 298.167,118.167 300.5,119.5C 299.5,119.5 298.5,119.5 297.5,119.5C 294.746,118.359 292.079,117.025 289.5,115.5 Z M 300.5,119.5 C 301.5,119.5 302.5,119.5 303.5,119.5C 305.302,120.458 307.302,121.125 309.5,121.5C 311.261,122.313 312.928,123.313 314.5,124.5C 312.5,124.167 310.5,123.833 308.5,123.5C 305.672,122.345 303.005,121.011 300.5,119.5 Z M 194.5,120.5 C 193.833,121.167 193.167,121.833 192.5,122.5C 192.167,122.5 191.833,122.5 191.5,122.5C 189.597,122.796 187.93,123.463 186.5,124.5C 185.5,124.5 184.5,124.5 183.5,124.5C 186.8,122.358 190.467,121.025 194.5,120.5 Z M 183.5,124.5 C 182.833,125.167 182.167,125.833 181.5,126.5C 178.574,127.461 175.574,128.127 172.5,128.5C 174.072,127.313 175.739,126.313 177.5,125.5C 177.833,125.5 178.167,125.5 178.5,125.5C 180.117,124.962 181.784,124.629 183.5,124.5 Z M 314.5,124.5 C 315.5,124.5 316.5,124.5 317.5,124.5C 320.254,125.641 322.921,126.975 325.5,128.5C 321.467,127.975 317.8,126.642 314.5,124.5 Z M 172.5,128.5 C 171.22,129.931 169.553,130.598 167.5,130.5C 168.78,129.069 170.447,128.402 172.5,128.5 Z M 325.5,128.5 C 327.553,128.402 329.22,129.069 330.5,130.5C 329.5,130.5 328.5,130.5 327.5,130.5C 327.5,129.833 327.167,129.5 326.5,129.5C 325.833,129.5 325.5,129.167 325.5,128.5 Z M 167.5,130.5 C 165.928,131.687 164.261,132.687 162.5,133.5C 161.5,133.5 160.5,133.5 159.5,133.5C 159.167,133.5 158.833,133.5 158.5,133.5C 161.084,131.528 164.084,130.528 167.5,130.5 Z M 330.5,130.5 C 334.673,130.667 338.34,132 341.5,134.5C 340.5,134.5 339.5,134.5 338.5,134.5C 335.746,133.359 333.079,132.025 330.5,130.5 Z M 155.5,133.5 C 156.5,133.5 157.5,133.5 158.5,133.5C 157.22,134.931 155.553,135.598 153.5,135.5C 154.167,134.833 154.833,134.167 155.5,133.5 Z M 102.5,294.5 C 110.209,294.269 117.876,294.602 125.5,295.5C 126.795,296.488 128.128,297.488 129.5,298.5C 130.295,302.785 130.628,307.119 130.5,311.5C 129.094,311.973 128.427,312.973 128.5,314.5C 126.973,314.427 125.973,315.094 125.5,316.5C 117.876,317.398 110.209,317.731 102.5,317.5C 102.5,309.833 102.5,302.167 102.5,294.5 Z M 130.5,329.5 C 130.833,330.167 131.167,330.833 131.5,331.5C 133.763,337.002 134.096,342.668 132.5,348.5C 129.719,352.056 126.052,353.723 121.5,353.5C 115.167,353.5 108.833,353.5 102.5,353.5C 102.5,344.833 102.5,336.167 102.5,327.5C 110.507,327.334 118.507,327.5 126.5,328C 127.745,328.791 129.078,329.291 130.5,329.5 Z M 235.5,390.5 C 235.5,392.167 235.5,393.833 235.5,395.5C 234.041,395.567 232.708,395.234 231.5,394.5C 231.167,391.5 232.5,390.167 235.5,390.5 Z M 286.5,401.5 C 286.5,397.833 286.5,394.167 286.5,390.5C 287.5,390.5 288.5,390.5 289.5,390.5C 289.5,394.167 289.5,397.833 289.5,401.5C 288.5,401.5 287.5,401.5 286.5,401.5 Z"/></g>
<g><path style="opacity:0.31" fill="#83c5b0" d="M 261.5,98.5 C 258.426,98.1274 255.426,97.4608 252.5,96.5C 250.192,94.2276 247.525,93.8943 244.5,95.5C 245.624,94.1914 247.124,93.5247 249,93.5C 253.452,94.7006 257.619,96.3673 261.5,98.5 Z"/></g>
<g><path style="opacity:1" fill="#3f9f7b" d="M 252.5,96.5 C 253.048,97.6885 253.381,98.8552 253.5,100C 257.346,101.669 261.346,102.836 265.5,103.5C 266.77,104.288 267.77,105.288 268.5,106.5C 265.539,105.677 262.539,105.01 259.5,104.5C 256.34,102.499 252.84,101.165 249,100.5C 245.064,101.203 241.23,102.203 237.5,103.5C 239.273,102.108 241.273,100.941 243.5,100C 242.655,98.4419 243.321,97.4419 245.5,97C 242.562,97.4462 239.562,97.9462 236.5,98.5C 238.89,96.9802 241.557,95.9802 244.5,95.5C 247.525,93.8943 250.192,94.2276 252.5,96.5 Z"/></g>
<g><path style="opacity:1" fill="#04885b" d="M 237.5,103.5 C 233.404,104.191 229.404,105.191 225.5,106.5C 225.31,104.041 226.31,102.374 228.5,101.5C 231.542,101.267 234.208,100.267 236.5,98.5C 239.562,97.9462 242.562,97.4462 245.5,97C 243.321,97.4419 242.655,98.4419 243.5,100C 241.273,100.941 239.273,102.108 237.5,103.5 Z"/></g>
<g><path style="opacity:0.443" fill="#77bfa8" d="M 236.5,98.5 C 234.208,100.267 231.542,101.267 228.5,101.5C 230.684,99.4152 233.351,98.4152 236.5,98.5 Z"/></g>
<g><path style="opacity:1" fill="#0e8a5e" d="M 252.5,96.5 C 255.426,97.4608 258.426,98.1274 261.5,98.5C 262.791,98.2627 263.791,98.596 264.5,99.5C 269.609,102.389 274.943,104.722 280.5,106.5C 280.062,106.435 279.728,106.601 279.5,107C 280.167,107.333 280.833,107.667 281.5,108C 279.975,109.009 278.308,109.509 276.5,109.5C 274.316,107.415 271.649,106.415 268.5,106.5C 267.77,105.288 266.77,104.288 265.5,103.5C 261.346,102.836 257.346,101.669 253.5,100C 253.381,98.8552 253.048,97.6885 252.5,96.5 Z"/></g>
<g><path style="opacity:1" fill="#51a786" d="M 259.5,104.5 C 260.167,105.167 260.833,105.833 261.5,106.5C 259.488,105.986 257.488,105.82 255.5,106C 256.056,106.383 256.389,106.883 256.5,107.5C 253.302,106.066 249.968,105.566 246.5,106C 229.631,112.63 212.631,118.797 195.5,124.5C 196.6,123.442 197.934,122.608 199.5,122C 197.153,121.666 194.819,121.833 192.5,122.5C 193.167,121.833 193.833,121.167 194.5,120.5C 199.534,119.602 204.201,117.935 208.5,115.5C 210.553,115.598 212.22,114.931 213.5,113.5C 217.533,112.975 221.2,111.642 224.5,109.5C 232.781,107.281 240.947,104.615 249,101.5C 252.431,102.811 255.931,103.811 259.5,104.5 Z"/></g>
<g><path style="opacity:0.345" fill="#63b397" d="M 228.5,101.5 C 226.31,102.374 225.31,104.041 225.5,106.5C 229.404,105.191 233.404,104.191 237.5,103.5C 233.057,105.221 228.724,107.221 224.5,109.5C 222.5,109.833 220.5,110.167 218.5,110.5C 219.974,109.325 221.64,108.325 223.5,107.5C 225.167,105.833 224.833,104.833 222.5,104.5C 217.267,106.616 211.934,108.449 206.5,110C 206.043,110.414 205.709,110.914 205.5,111.5C 207.022,112.562 208.688,113.229 210.5,113.5C 209.833,114.167 209.167,114.833 208.5,115.5C 206.139,115.674 203.806,116.007 201.5,116.5C 202.172,115.733 203.005,115.066 204,114.5C 204.749,113.365 204.583,112.365 203.5,111.5C 196.13,113.859 188.797,116.192 181.5,118.5C 196.786,112.035 212.453,106.368 228.5,101.5 Z"/></g>
<g><path style="opacity:1" fill="#1a8b60" d="M 261.5,106.5 C 262.6,107.558 263.934,108.392 265.5,109C 263.153,109.334 260.819,109.167 258.5,108.5C 257.508,108.672 256.842,108.338 256.5,107.5C 256.389,106.883 256.056,106.383 255.5,106C 257.488,105.82 259.488,105.986 261.5,106.5 Z"/></g>
<g><path style="opacity:0.263" fill="#75bea6" d="M 268.5,106.5 C 271.649,106.415 274.316,107.415 276.5,109.5C 275.5,109.5 274.5,109.5 273.5,109.5C 271.928,108.313 270.261,107.313 268.5,106.5 Z"/></g>
<g><path style="opacity:1" fill="#4aa481" d="M 280.5,106.5 C 281.492,106.328 282.158,106.662 282.5,107.5C 283.048,108.688 283.381,109.855 283.5,111C 286.823,112.04 289.823,113.54 292.5,115.5C 291.5,115.5 290.5,115.5 289.5,115.5C 288.22,114.069 286.553,113.402 284.5,113.5C 281.921,111.975 279.254,110.641 276.5,109.5C 278.308,109.509 279.975,109.009 281.5,108C 280.833,107.667 280.167,107.333 279.5,107C 279.728,106.601 280.062,106.435 280.5,106.5 Z"/></g>
<g><path style="opacity:0.949" fill="#6ebaa0" d="M 254.5,109.5 C 251.735,109.604 248.735,109.771 245.5,110C 232.785,115.405 219.785,119.905 206.5,123.5C 220.451,117.901 234.618,112.567 249,107.5C 250.9,108.077 252.733,108.744 254.5,109.5 Z"/></g>
<g><path style="opacity:1" fill="#05885c" d="M 218.5,110.5 C 215.351,110.415 212.684,111.415 210.5,113.5C 208.688,113.229 207.022,112.562 205.5,111.5C 205.709,110.914 206.043,110.414 206.5,110C 211.934,108.449 217.267,106.616 222.5,104.5C 224.833,104.833 225.167,105.833 223.5,107.5C 221.64,108.325 219.974,109.325 218.5,110.5 Z"/></g>
<g><path style="opacity:1" fill="#0e8a5e" d="M 282.5,107.5 C 289.183,109.512 295.849,111.512 302.5,113.5C 304.792,115.267 307.458,116.267 310.5,116.5C 312.69,117.374 313.69,119.041 313.5,121.5C 312.167,121.5 310.833,121.5 309.5,121.5C 307.302,121.125 305.302,120.458 303.5,119.5C 300.66,117.085 297.327,115.752 293.5,115.5C 293.167,115.5 292.833,115.5 292.5,115.5C 289.823,113.54 286.823,112.04 283.5,111C 283.381,109.855 283.048,108.688 282.5,107.5 Z"/></g>
<g><path style="opacity:0.753" fill="#7bc1aa" d="M 264.5,99.5 C 277.461,103.595 290.127,108.262 302.5,113.5C 295.849,111.512 289.183,109.512 282.5,107.5C 282.158,106.662 281.492,106.328 280.5,106.5C 274.943,104.722 269.609,102.389 264.5,99.5 Z"/></g>
<g><path style="opacity:0.714" fill="#84c5af" d="M 218.5,110.5 C 216.739,111.313 215.072,112.313 213.5,113.5C 212.5,113.5 211.5,113.5 210.5,113.5C 212.684,111.415 215.351,110.415 218.5,110.5 Z"/></g>
<g><path style="opacity:1" fill="#01895d" d="M 254.5,109.5 C 254.833,109.5 255.167,109.5 255.5,109.5C 257.339,112.135 260.006,113.468 263.5,113.5C 263.833,113.5 264.167,113.5 264.5,113.5C 268.395,116.134 272.728,117.801 277.5,118.5C 279.792,120.267 282.458,121.267 285.5,121.5C 290.022,125.372 295.355,127.372 301.5,127.5C 301.281,128.675 301.614,129.675 302.5,130.5C 305.134,129.484 307.8,129.484 310.5,130.5C 315.414,133.404 320.747,135.404 326.5,136.5C 332.057,140.62 338.391,142.953 345.5,143.5C 346.043,143.56 346.376,143.893 346.5,144.5C 345.153,147.193 343.82,149.86 342.5,152.5C 280.499,152.667 218.499,152.5 156.5,152C 155.601,150.348 154.601,148.848 153.5,147.5C 153.238,146.022 153.571,144.689 154.5,143.5C 155.739,143.058 156.739,142.391 157.5,141.5C 159.792,139.733 162.458,138.733 165.5,138.5C 171.564,136.973 177.564,135.14 183.5,133C 185.544,132.502 186.878,131.335 187.5,129.5C 187.833,129.5 188.167,129.5 188.5,129.5C 188.56,130.043 188.893,130.376 189.5,130.5C 195.588,128.948 201.255,126.615 206.5,123.5C 219.785,119.905 232.785,115.405 245.5,110C 248.735,109.771 251.735,109.604 254.5,109.5 Z"/></g>
<g><path style="opacity:1" fill="#0e875a" d="M 270.5,109.5 C 272.426,111.293 274.759,112.293 277.5,112.5C 277.918,113.222 278.584,113.722 279.5,114C 274.942,113.705 270.609,112.372 266.5,110C 267.793,109.51 269.127,109.343 270.5,109.5 Z"/></g>
<g><path style="opacity:0.322" fill="#7dc3ad" d="M 270.5,109.5 C 271.5,109.5 272.5,109.5 273.5,109.5C 274.833,110.5 276.167,111.5 277.5,112.5C 274.759,112.293 272.426,111.293 270.5,109.5 Z"/></g>
<g><path style="opacity:0.565" fill="#89c8b4" d="M 255.5,109.5 C 258.328,110.655 260.995,111.989 263.5,113.5C 260.006,113.468 257.339,112.135 255.5,109.5 Z"/></g>
<g><path style="opacity:1" fill="#69b69b" d="M 261.5,106.5 C 264.67,107.265 267.67,108.265 270.5,109.5C 269.127,109.343 267.793,109.51 266.5,110C 270.609,112.372 274.942,113.705 279.5,114C 278.584,113.722 277.918,113.222 277.5,112.5C 279.806,112.993 282.139,113.326 284.5,113.5C 285.167,114.167 285.833,114.833 286.5,115.5C 284.488,114.986 282.488,114.82 280.5,115C 283.391,116.274 286.058,117.774 288.5,119.5C 278.226,116.353 268.226,112.687 258.5,108.5C 260.819,109.167 263.153,109.334 265.5,109C 263.934,108.392 262.6,107.558 261.5,106.5 Z"/></g>
<g><path style="opacity:0.151" fill="#76bfa8" d="M 302.5,113.5 C 305.542,113.733 308.208,114.733 310.5,116.5C 307.458,116.267 304.792,115.267 302.5,113.5 Z"/></g>
<g><path style="opacity:1" fill="#14885b" d="M 286.5,115.5 C 288.273,116.892 290.273,118.059 292.5,119C 291.263,119.232 290.263,119.732 289.5,120.5C 288.833,120.5 288.5,120.167 288.5,119.5C 286.058,117.774 283.391,116.274 280.5,115C 282.488,114.82 284.488,114.986 286.5,115.5 Z"/></g>
<g><path style="opacity:0.8" fill="#7bc1aa" d="M 264.5,113.5 C 269.132,114.596 273.466,116.263 277.5,118.5C 272.728,117.801 268.395,116.134 264.5,113.5 Z"/></g>
<g><path style="opacity:0.929" fill="#74bda4" d="M 293.5,115.5 C 297.327,115.752 300.66,117.085 303.5,119.5C 302.5,119.5 301.5,119.5 300.5,119.5C 298.167,118.167 295.833,116.833 293.5,115.5 Z"/></g>
<g><path style="opacity:0.165" fill="#70bca3" d="M 201.5,116.5 C 199.167,117.833 196.833,119.167 194.5,120.5C 190.467,121.025 186.8,122.358 183.5,124.5C 181.784,124.629 180.117,124.962 178.5,125.5C 185.527,121.152 193.194,118.152 201.5,116.5 Z"/></g>
<g><path style="opacity:0.212" fill="#74bea6" d="M 277.5,118.5 C 280.542,118.733 283.208,119.733 285.5,121.5C 282.458,121.267 279.792,120.267 277.5,118.5 Z"/></g>
<g><path style="opacity:1" fill="#6bb89d" d="M 286.5,115.5 C 287.5,115.5 288.5,115.5 289.5,115.5C 292.079,117.025 294.746,118.359 297.5,119.5C 296.127,119.343 294.793,119.51 293.5,120C 295.066,120.608 296.4,121.442 297.5,122.5C 294.779,122.037 292.112,121.371 289.5,120.5C 290.263,119.732 291.263,119.232 292.5,119C 290.273,118.059 288.273,116.892 286.5,115.5 Z"/></g>
<g><path style="opacity:1" fill="#5eb092" d="M 310.5,116.5 C 313.968,117.101 317.301,118.101 320.5,119.5C 318.741,119.954 316.741,119.954 314.5,119.5C 314.31,121.959 315.31,123.626 317.5,124.5C 316.5,124.5 315.5,124.5 314.5,124.5C 312.928,123.313 311.261,122.313 309.5,121.5C 310.833,121.5 312.167,121.5 313.5,121.5C 313.69,119.041 312.69,117.374 310.5,116.5 Z"/></g>
<g><path style="opacity:1" fill="#3d9b76" d="M 297.5,119.5 C 298.5,119.5 299.5,119.5 300.5,119.5C 303.005,121.011 305.672,122.345 308.5,123.5C 309.85,124.65 309.684,125.317 308,125.5C 306.234,124.767 304.401,124.433 302.5,124.5C 300.447,124.598 298.78,123.931 297.5,122.5C 296.4,121.442 295.066,120.608 293.5,120C 294.793,119.51 296.127,119.343 297.5,119.5 Z"/></g>
<g><path style="opacity:0.992" fill="#69b89d" d="M 181.5,118.5 C 177.541,120.973 173.207,122.64 168.5,123.5C 172.444,121.036 176.777,119.37 181.5,118.5 Z"/></g>
<g><path style="opacity:0.58" fill="#84c6b0" d="M 321.5,119.5 C 324.328,120.655 326.995,121.989 329.5,123.5C 326.006,123.468 323.339,122.135 321.5,119.5 Z"/></g>
<g><path style="opacity:0.984" fill="#1a8e63" d="M 195.5,124.5 C 193.517,124.843 192.183,124.176 191.5,122.5C 191.833,122.5 192.167,122.5 192.5,122.5C 194.819,121.833 197.153,121.666 199.5,122C 197.934,122.608 196.6,123.442 195.5,124.5 Z"/></g>
<g><path style="opacity:1" fill="#06895c" d="M 320.5,119.5 C 320.833,119.5 321.167,119.5 321.5,119.5C 323.339,122.135 326.006,123.468 329.5,123.5C 329.833,123.5 330.167,123.5 330.5,123.5C 334.398,125.577 334.231,126.91 330,127.5C 325.911,126.193 321.744,125.193 317.5,124.5C 315.31,123.626 314.31,121.959 314.5,119.5C 316.741,119.954 318.741,119.954 320.5,119.5 Z"/></g>
<g><path style="opacity:1" fill="#05895c" d="M 201.5,116.5 C 193.194,118.152 185.527,121.152 178.5,125.5C 178.167,125.5 177.833,125.5 177.5,125.5C 174.11,125.777 170.943,126.777 168,128.5C 163.587,126.617 163.754,124.95 168.5,123.5C 173.207,122.64 177.541,120.973 181.5,118.5C 188.797,116.192 196.13,113.859 203.5,111.5C 204.583,112.365 204.749,113.365 204,114.5C 203.005,115.066 202.172,115.733 201.5,116.5 Z"/></g>
<g><path style="opacity:1" fill="#31936b" d="M 183.5,124.5 C 184.5,124.5 185.5,124.5 186.5,124.5C 191.592,124.497 191.592,125.33 186.5,127C 183.649,128.608 180.649,129.274 177.5,129C 179.32,128.8 180.653,127.966 181.5,126.5C 182.167,125.833 182.833,125.167 183.5,124.5 Z"/></g>
<g><path style="opacity:1" fill="#54aa8a" d="M 285.5,121.5 C 294.223,123.708 302.556,126.708 310.5,130.5C 307.8,129.484 305.134,129.484 302.5,130.5C 301.614,129.675 301.281,128.675 301.5,127.5C 295.355,127.372 290.022,125.372 285.5,121.5 Z"/></g>
<g><path style="opacity:1" fill="#65b397" d="M 168.5,123.5 C 163.754,124.95 163.587,126.617 168,128.5C 170.943,126.777 174.11,125.777 177.5,125.5C 175.739,126.313 174.072,127.313 172.5,128.5C 170.447,128.402 168.78,129.069 167.5,130.5C 164.084,130.528 161.084,131.528 158.5,133.5C 157.5,133.5 156.5,133.5 155.5,133.5C 157.617,131.937 159.95,130.604 162.5,129.5C 163.879,128.137 163.713,127.137 162,126.5C 155.885,128.735 149.719,130.735 143.5,132.5C 151.548,128.927 159.881,125.927 168.5,123.5 Z"/></g>
<g><path style="opacity:1" fill="#69b89d" d="M 206.5,123.5 C 201.255,126.615 195.588,128.948 189.5,130.5C 188.893,130.376 188.56,130.043 188.5,129.5C 194.422,127.304 200.422,125.304 206.5,123.5 Z"/></g>
<g><path style="opacity:1" fill="#5fb093" d="M 330.5,123.5 C 336.109,124.98 341.443,126.98 346.5,129.5C 342.385,128.905 338.385,127.905 334.5,126.5C 334.351,127.552 334.517,128.552 335,129.5C 337.192,130.399 339.358,131.399 341.5,132.5C 342.298,132.957 342.631,133.624 342.5,134.5C 342.167,134.5 341.833,134.5 341.5,134.5C 338.34,132 334.673,130.667 330.5,130.5C 329.22,129.069 327.553,128.402 325.5,128.5C 322.921,126.975 320.254,125.641 317.5,124.5C 321.744,125.193 325.911,126.193 330,127.5C 334.231,126.91 334.398,125.577 330.5,123.5 Z"/></g>
<g><path style="opacity:1" fill="#60b194" d="M 191.5,122.5 C 192.183,124.176 193.517,124.843 195.5,124.5C 185.803,128.766 175.803,132.433 165.5,135.5C 168.352,133.924 171.352,132.424 174.5,131C 170.475,131.503 166.475,132.336 162.5,133.5C 164.261,132.687 165.928,131.687 167.5,130.5C 169.553,130.598 171.22,129.931 172.5,128.5C 175.574,128.127 178.574,127.461 181.5,126.5C 180.653,127.966 179.32,128.8 177.5,129C 180.649,129.274 183.649,128.608 186.5,127C 191.592,125.33 191.592,124.497 186.5,124.5C 187.93,123.463 189.597,122.796 191.5,122.5 Z"/></g>
<g><path style="opacity:1" fill="#68b59a" d="M 308.5,123.5 C 310.5,123.833 312.5,124.167 314.5,124.5C 317.8,126.642 321.467,127.975 325.5,128.5C 325.5,129.167 325.833,129.5 326.5,129.5C 325.047,129.929 323.381,130.096 321.5,130C 324.523,132.186 327.857,133.186 331.5,133C 329.934,132.392 328.6,131.558 327.5,130.5C 328.5,130.5 329.5,130.5 330.5,130.5C 333.079,132.025 335.746,133.359 338.5,134.5C 336.738,134.643 335.071,134.309 333.5,133.5C 333.167,133.667 332.833,133.833 332.5,134C 333.381,134.708 334.047,135.542 334.5,136.5C 327.257,134.201 320.257,131.535 313.5,128.5C 309.617,127.541 305.95,126.208 302.5,124.5C 304.401,124.433 306.234,124.767 308,125.5C 309.684,125.317 309.85,124.65 308.5,123.5 Z"/></g>
<g><path style="opacity:1" fill="#0e875a" d="M 313.5,128.5 C 312.571,127.685 311.571,126.852 310.5,126C 313.924,126.361 317.258,127.361 320.5,129C 318.153,129.334 315.819,129.167 313.5,128.5 Z"/></g>
<g><path style="opacity:1" fill="#198d63" d="M 326.5,129.5 C 327.167,129.5 327.5,129.833 327.5,130.5C 328.6,131.558 329.934,132.392 331.5,133C 327.857,133.186 324.523,132.186 321.5,130C 323.381,130.096 325.047,129.929 326.5,129.5 Z"/></g>
<g><path style="opacity:1" fill="#349770" d="M 346.5,129.5 C 350.099,130.699 353.765,131.699 357.5,132.5C 357.868,135.056 357.034,137.056 355,138.5C 350.957,136.725 346.79,135.392 342.5,134.5C 342.631,133.624 342.298,132.957 341.5,132.5C 339.358,131.399 337.192,130.399 335,129.5C 334.517,128.552 334.351,127.552 334.5,126.5C 338.385,127.905 342.385,128.905 346.5,129.5 Z"/></g>
<g><path style="opacity:1" fill="#138b60" d="M 155.5,133.5 C 154.833,134.167 154.167,134.833 153.5,135.5C 152.167,135.5 150.833,135.5 149.5,135.5C 147.173,135.665 145.007,136.331 143,137.5C 141.212,135.977 141.045,134.31 142.5,132.5C 142.833,132.5 143.167,132.5 143.5,132.5C 149.719,130.735 155.885,128.735 162,126.5C 163.713,127.137 163.879,128.137 162.5,129.5C 159.95,130.604 157.617,131.937 155.5,133.5 Z"/></g>
<g><path style="opacity:0.098" fill="#77bfa8" d="M 310.5,130.5 C 316.151,131.902 321.484,133.902 326.5,136.5C 320.747,135.404 315.414,133.404 310.5,130.5 Z"/></g>
<g><path style="opacity:0.502" fill="#74bda5" d="M 187.5,129.5 C 186.878,131.335 185.544,132.502 183.5,133C 177.564,135.14 171.564,136.973 165.5,138.5C 172.641,135.205 179.974,132.205 187.5,129.5 Z"/></g>
<g><path style="opacity:0.2" fill="#83c5b0" d="M 142.5,132.5 C 141.045,134.31 141.212,135.977 143,137.5C 145.007,136.331 147.173,135.665 149.5,135.5C 147.206,137.431 144.539,138.264 141.5,138C 138.518,135.323 138.851,133.49 142.5,132.5 Z"/></g>
<g><path style="opacity:1" fill="#148a5e" d="M 165.5,135.5 C 165.167,135.5 164.833,135.5 164.5,135.5C 160.703,135.872 157.37,137.206 154.5,139.5C 153.127,139.657 151.793,139.49 150.5,139C 153.05,137.558 155.716,136.392 158.5,135.5C 159.298,135.043 159.631,134.376 159.5,133.5C 160.5,133.5 161.5,133.5 162.5,133.5C 166.475,132.336 170.475,131.503 174.5,131C 171.352,132.424 168.352,133.924 165.5,135.5 Z"/></g>
<g><path style="opacity:0.349" fill="#7ac1aa" d="M 164.5,135.5 C 161.47,137.403 158.137,138.737 154.5,139.5C 157.37,137.206 160.703,135.872 164.5,135.5 Z"/></g>
<g><path style="opacity:0.992" fill="#51a786" d="M 338.5,134.5 C 339.5,134.5 340.5,134.5 341.5,134.5C 344.739,136.149 348.073,137.816 351.5,139.5C 350.307,141.384 348.641,141.884 346.5,141C 342.365,139.762 338.365,138.262 334.5,136.5C 334.047,135.542 333.381,134.708 332.5,134C 332.833,133.833 333.167,133.667 333.5,133.5C 335.071,134.309 336.738,134.643 338.5,134.5 Z"/></g>
<g><path style="opacity:1" fill="#6db79c" d="M 158.5,133.5 C 158.833,133.5 159.167,133.5 159.5,133.5C 159.631,134.376 159.298,135.043 158.5,135.5C 155.716,136.392 153.05,137.558 150.5,139C 151.793,139.49 153.127,139.657 154.5,139.5C 152.461,140.578 150.294,141.578 148,142.5C 147.5,141.5 147,140.5 146.5,139.5C 148.904,138.157 151.238,136.823 153.5,135.5C 155.553,135.598 157.22,134.931 158.5,133.5 Z"/></g>
<g><path style="opacity:1" fill="#56ac8c" d="M 326.5,136.5 C 333.282,137.869 339.615,140.202 345.5,143.5C 338.391,142.953 332.057,140.62 326.5,136.5 Z"/></g>
<g><path style="opacity:1" fill="#77bea6" d="M 157.5,141.5 C 156.739,142.391 155.739,143.058 154.5,143.5C 153.571,144.689 153.238,146.022 153.5,147.5C 152.069,146.22 151.402,144.553 151.5,142.5C 153.5,142.167 155.5,141.833 157.5,141.5 Z"/></g>
<g><path style="opacity:0.486" fill="#92cbb8" d="M 153.5,147.5 C 154.601,148.848 155.601,150.348 156.5,152C 218.499,152.5 280.499,152.667 342.5,152.5C 280.335,153.665 218.001,153.832 155.5,153C 154.139,151.416 153.472,149.582 153.5,147.5 Z"/></g>
<g><path style="opacity:0.502" fill="#47ac8e" d="M 152.5,157.5 C 152.5,157.167 152.5,156.833 152.5,156.5C 217.167,156.5 281.833,156.5 346.5,156.5C 346.5,158.833 346.5,161.167 346.5,163.5C 346.167,163.5 345.833,163.5 345.5,163.5C 345.5,161.5 345.5,159.5 345.5,157.5C 281.167,157.5 216.833,157.5 152.5,157.5 Z"/></g>
<g><path style="opacity:1" fill="#139169" d="M 152.5,158.5 C 152.5,158.167 152.5,157.833 152.5,157.5C 216.833,157.5 281.167,157.5 345.5,157.5C 345.5,159.5 345.5,161.5 345.5,163.5C 345.167,163.5 344.833,163.5 344.5,163.5C 344.5,161.833 344.5,160.167 344.5,158.5C 280.5,158.5 216.5,158.5 152.5,158.5 Z"/></g>
<g><path style="opacity:1" fill="#00895c" d="M 152.5,158.5 C 216.5,158.5 280.5,158.5 344.5,158.5C 344.5,160.167 344.5,161.833 344.5,163.5C 280.5,163.5 216.5,163.5 152.5,163.5C 152.5,161.833 152.5,160.167 152.5,158.5 Z"/></g>
<g><path style="opacity:0.392" fill="#a0d6c8" d="M 152.5,156.5 C 152.5,156.833 152.5,157.167 152.5,157.5C 152.5,157.833 152.5,158.167 152.5,158.5C 152.5,160.167 152.5,161.833 152.5,163.5C 216.5,163.5 280.5,163.5 344.5,163.5C 344.833,163.5 345.167,163.5 345.5,163.5C 345.833,163.5 346.167,163.5 346.5,163.5C 281.669,164.499 216.669,164.832 151.5,164.5C 151.194,161.615 151.527,158.948 152.5,156.5 Z"/></g>
<g><path style="opacity:0.188" fill="#bde1d5" d="M 290.5,168.5 C 295.305,167.513 300.305,167.179 305.5,167.5C 305.868,170.533 305.202,173.2 303.5,175.5C 302.662,175.158 302.328,174.492 302.5,173.5C 304.256,172.448 304.923,170.781 304.5,168.5C 299.833,168.5 295.167,168.5 290.5,168.5 Z"/></g>
<g><path style="opacity:0.188" fill="#bce0d4" d="M 338.5,168.5 C 333.833,168.5 329.167,168.5 324.5,168.5C 324.468,171.076 325.135,173.409 326.5,175.5C 326.167,175.5 325.833,175.5 325.5,175.5C 323.798,173.2 323.132,170.533 323.5,167.5C 328.695,167.179 333.695,167.513 338.5,168.5 Z"/></g>
<g><path style="opacity:0.922" fill="#65b598" d="M 240.5,173.5 C 239.833,173.5 239.167,173.5 238.5,173.5C 238.5,172.167 238.5,170.833 238.5,169.5C 234.5,169.5 230.5,169.5 226.5,169.5C 226.5,170.833 226.5,172.167 226.5,173.5C 225.549,172.081 225.216,170.415 225.5,168.5C 229.981,167.352 234.648,167.185 239.5,168C 240.406,169.699 240.739,171.533 240.5,173.5 Z"/></g>
<g><path style="opacity:0.051" fill="#b1ddd0" d="M 225.5,168.5 C 225.216,170.415 225.549,172.081 226.5,173.5C 226.833,173.5 227.167,173.5 227.5,173.5C 227.5,173.833 227.5,174.167 227.5,174.5C 226.5,174.5 225.5,174.5 224.5,174.5C 224.205,172.265 224.539,170.265 225.5,168.5 Z"/></g>
<g><path style="opacity:1" fill="#118c60" d="M 206.5,168.5 C 206.923,170.781 206.256,172.448 204.5,173.5C 203.503,193.993 203.169,214.66 203.5,235.5C 200.833,235.5 198.167,235.5 195.5,235.5C 195.5,214.833 195.5,194.167 195.5,173.5C 194.5,173.5 193.5,173.5 192.5,173.5C 192.5,171.5 192.5,169.5 192.5,167.5C 197.363,167.181 202.03,167.514 206.5,168.5 Z"/></g>
<g><path style="opacity:1" fill="#01885c" d="M 238.5,173.5 C 236.512,193.806 235.845,214.473 236.5,235.5C 233.833,235.5 231.167,235.5 228.5,235.5C 228.831,214.66 228.497,193.993 227.5,173.5C 227.167,173.5 226.833,173.5 226.5,173.5C 226.5,172.167 226.5,170.833 226.5,169.5C 230.5,169.5 234.5,169.5 238.5,169.5C 238.5,170.833 238.5,172.167 238.5,173.5 Z"/></g>
<g><path style="opacity:1" fill="#02895d" d="M 258.5,168.5 C 262.833,168.5 267.167,168.5 271.5,168.5C 269.61,190.746 268.944,213.08 269.5,235.5C 266.833,235.5 264.167,235.5 261.5,235.5C 261.5,214.833 261.5,194.167 261.5,173.5C 260.5,173.5 259.5,173.5 258.5,173.5C 258.5,171.833 258.5,170.167 258.5,168.5 Z"/></g>
<g><path style="opacity:1" fill="#02895c" d="M 290.5,168.5 C 295.167,168.5 299.833,168.5 304.5,168.5C 304.923,170.781 304.256,172.448 302.5,173.5C 301.503,193.66 301.17,213.993 301.5,234.5C 299.167,234.5 296.833,234.5 294.5,234.5C 294.83,213.993 294.497,193.66 293.5,173.5C 292.5,173.5 291.5,173.5 290.5,173.5C 290.5,171.833 290.5,170.167 290.5,168.5 Z"/></g>
<g><path style="opacity:1" fill="#098b5f" d="M 338.5,168.5 C 338.5,170.167 338.5,171.833 338.5,173.5C 337.5,173.5 336.5,173.5 335.5,173.5C 334.503,193.66 334.17,213.993 334.5,234.5C 332.167,234.5 329.833,234.5 327.5,234.5C 326.503,215.007 326.17,195.34 326.5,175.5C 325.135,173.409 324.468,171.076 324.5,168.5C 329.167,168.5 333.833,168.5 338.5,168.5 Z"/></g>
<g><path style="opacity:0.286" fill="#b7e1d7" d="M 206.5,168.5 C 207.898,171.007 207.564,173.34 205.5,175.5C 204.662,175.158 204.328,174.492 204.5,173.5C 206.256,172.448 206.923,170.781 206.5,168.5 Z"/></g>
<g><path style="opacity:0.949" fill="#3ca583" d="M 162.5,173.5 C 163.497,193.66 163.83,213.993 163.5,234.5C 165.833,234.5 168.167,234.5 170.5,234.5C 170.17,213.993 170.503,193.66 171.5,173.5C 171.5,194.167 171.5,214.833 171.5,235.5C 168.5,236.833 165.5,236.833 162.5,235.5C 162.5,214.833 162.5,194.167 162.5,173.5 Z"/></g>
<g><path style="opacity:0.33" fill="#b1dccf" d="M 192.5,173.5 C 193.5,173.5 194.5,173.5 195.5,173.5C 195.5,194.167 195.5,214.833 195.5,235.5C 198.167,235.5 200.833,235.5 203.5,235.5C 203.833,235.5 204.167,235.5 204.5,235.5C 201.375,236.479 198.042,236.813 194.5,236.5C 195.138,215.268 194.471,194.268 192.5,173.5 Z"/></g>
<g><path style="opacity:0.584" fill="#79bfa8" d="M 227.5,173.5 C 228.497,193.993 228.831,214.66 228.5,235.5C 231.167,235.5 233.833,235.5 236.5,235.5C 235.845,214.473 236.512,193.806 238.5,173.5C 239.167,173.5 239.833,173.5 240.5,173.5C 239.791,174.404 238.791,174.737 237.5,174.5C 237.5,195.167 237.5,215.833 237.5,236.5C 234.167,236.5 230.833,236.5 227.5,236.5C 227.5,215.833 227.5,195.167 227.5,174.5C 227.5,174.167 227.5,173.833 227.5,173.5 Z"/></g>
<g><path style="opacity:0.051" fill="#9ad1c0" d="M 258.5,168.5 C 258.5,170.167 258.5,171.833 258.5,173.5C 259.5,173.5 260.5,173.5 261.5,173.5C 261.5,194.167 261.5,214.833 261.5,235.5C 264.167,235.5 266.833,235.5 269.5,235.5C 266.435,236.818 263.269,236.818 260,235.5C 260.099,214.091 259.266,192.757 257.5,171.5C 257.52,170.274 257.853,169.274 258.5,168.5 Z"/></g>
<g><path style="opacity:0.07" fill="#dbeee8" d="M 290.5,173.5 C 291.5,173.5 292.5,173.5 293.5,173.5C 293.5,194.167 293.5,214.833 293.5,235.5C 293.143,214.774 292.143,194.108 290.5,173.5 Z"/></g>
<g><path style="opacity:1" fill="#43a684" d="M 293.5,173.5 C 294.497,193.66 294.83,213.993 294.5,234.5C 296.833,234.5 299.167,234.5 301.5,234.5C 301.17,213.993 301.503,193.66 302.5,173.5C 302.328,174.492 302.662,175.158 303.5,175.5C 303.667,195.503 303.5,215.503 303,235.5C 299.731,236.818 296.565,236.818 293.5,235.5C 293.5,214.833 293.5,194.167 293.5,173.5 Z"/></g>
<g><path style="opacity:0.875" fill="#36a280" d="M 335.5,173.5 C 335.5,194.167 335.5,214.833 335.5,235.5C 332.615,235.806 329.948,235.473 327.5,234.5C 329.833,234.5 332.167,234.5 334.5,234.5C 334.17,213.993 334.503,193.66 335.5,173.5 Z"/></g>
<g><path style="opacity:0.07" fill="#dbeee8" d="M 335.5,173.5 C 336.5,173.5 337.5,173.5 338.5,173.5C 336.857,194.108 335.857,214.774 335.5,235.5C 335.5,214.833 335.5,194.167 335.5,173.5 Z"/></g>
<g><path style="opacity:0.23" fill="#abdbce" d="M 171.5,235.5 C 171.5,214.833 171.5,194.167 171.5,173.5C 173.256,172.448 173.923,170.781 173.5,168.5C 169.167,168.5 164.833,168.5 160.5,168.5C 160.077,170.781 160.744,172.448 162.5,173.5C 162.5,194.167 162.5,214.833 162.5,235.5C 162.016,212.939 161.016,190.273 159.5,167.5C 164.5,167.5 169.5,167.5 174.5,167.5C 172.984,190.273 171.984,212.939 171.5,235.5 Z"/></g>
<g><path style="opacity:1" fill="#01885c" d="M 171.5,173.5 C 170.503,193.66 170.17,213.993 170.5,234.5C 168.167,234.5 165.833,234.5 163.5,234.5C 163.83,213.993 163.497,193.66 162.5,173.5C 160.744,172.448 160.077,170.781 160.5,168.5C 164.833,168.5 169.167,168.5 173.5,168.5C 173.923,170.781 173.256,172.448 171.5,173.5 Z"/></g>
<g><path style="opacity:0.494" fill="#96d0bf" d="M 258.5,168.5 C 262.97,167.514 267.637,167.181 272.5,167.5C 270.984,190.273 269.984,212.939 269.5,235.5C 268.944,213.08 269.61,190.746 271.5,168.5C 267.167,168.5 262.833,168.5 258.5,168.5 Z"/></g>
<g><path style="opacity:0.322" fill="#6bbaa0" d="M 325.5,175.5 C 325.833,175.5 326.167,175.5 326.5,175.5C 326.17,195.34 326.503,215.007 327.5,234.5C 329.948,235.473 332.615,235.806 335.5,235.5C 332.435,236.818 329.269,236.818 326,235.5C 325.5,215.503 325.333,195.503 325.5,175.5 Z"/></g>
<g><path style="opacity:0.051" fill="#58b194" d="M 204.5,173.5 C 204.328,174.492 204.662,175.158 205.5,175.5C 205.83,195.674 205.497,215.674 204.5,235.5C 204.167,235.5 203.833,235.5 203.5,235.5C 203.169,214.66 203.503,193.993 204.5,173.5 Z"/></g>
<g><path style="opacity:0.373" fill="#8dc8b4" d="M 277.5,178.5 C 277.5,178.833 277.5,179.167 277.5,179.5C 277.5,194.5 277.5,209.5 277.5,224.5C 280.167,224.5 282.833,224.5 285.5,224.5C 286.496,209.342 286.83,194.009 286.5,178.5C 287.496,193.991 287.83,209.658 287.5,225.5C 283.563,225.793 279.73,225.46 276,224.5C 275.333,209.5 275.333,194.5 276,179.5C 276.383,178.944 276.883,178.611 277.5,178.5 Z"/></g>
<g><path style="opacity:0.106" fill="#97cdba" d="M 178.5,178.5 C 178.5,178.833 178.5,179.167 178.5,179.5C 178.5,194.5 178.5,209.5 178.5,224.5C 181.5,224.5 184.5,224.5 187.5,224.5C 188.496,209.342 188.83,194.009 188.5,178.5C 189.496,193.991 189.83,209.658 189.5,225.5C 185.5,225.5 181.5,225.5 177.5,225.5C 177.17,209.658 177.504,193.991 178.5,178.5 Z"/></g>
<g><path style="opacity:0.879" fill="#50ac8e" d="M 178.5,179.5 C 178.5,179.167 178.5,178.833 178.5,178.5C 181.833,178.5 185.167,178.5 188.5,178.5C 188.83,194.009 188.496,209.342 187.5,224.5C 187.5,209.5 187.5,194.5 187.5,179.5C 184.5,179.5 181.5,179.5 178.5,179.5 Z"/></g>
<g><path style="opacity:0.361" fill="#a1d6c7" d="M 211.5,178.5 C 211.5,178.833 211.5,179.167 211.5,179.5C 211.5,194.5 211.5,209.5 211.5,224.5C 215.012,225.055 218.012,224.388 220.5,222.5C 220.833,222.5 221.167,222.5 221.5,222.5C 221.5,223.5 221.5,224.5 221.5,225.5C 217.833,225.5 214.167,225.5 210.5,225.5C 210.17,209.658 210.504,193.991 211.5,178.5 Z"/></g>
<g><path style="opacity:1" fill="#289a75" d="M 277.5,179.5 C 277.5,179.167 277.5,178.833 277.5,178.5C 280.5,178.5 283.5,178.5 286.5,178.5C 286.83,194.009 286.496,209.342 285.5,224.5C 285.5,209.5 285.5,194.5 285.5,179.5C 282.833,179.5 280.167,179.5 277.5,179.5 Z"/></g>
<g><path style="opacity:1" fill="#048a5e" d="M 178.5,179.5 C 181.5,179.5 184.5,179.5 187.5,179.5C 187.5,194.5 187.5,209.5 187.5,224.5C 184.5,224.5 181.5,224.5 178.5,224.5C 178.5,209.5 178.5,194.5 178.5,179.5 Z"/></g>
<g><path style="opacity:1" fill="#00895d" d="M 211.5,179.5 C 214.5,179.5 217.5,179.5 220.5,179.5C 220.5,193.833 220.5,208.167 220.5,222.5C 218.012,224.388 215.012,225.055 211.5,224.5C 211.5,209.5 211.5,194.5 211.5,179.5 Z"/></g>
<g><path style="opacity:0.71" fill="#76bea6" d="M 243.5,178.5 C 247.167,178.5 250.833,178.5 254.5,178.5C 254.5,194.167 254.5,209.833 254.5,225.5C 250.833,225.5 247.167,225.5 243.5,225.5C 243.5,209.833 243.5,194.167 243.5,178.5 Z"/></g>
<g><path style="opacity:1" fill="#00895d" d="M 244.5,179.5 C 247.5,179.5 250.5,179.5 253.5,179.5C 253.5,194.5 253.5,209.5 253.5,224.5C 250.5,224.5 247.5,224.5 244.5,224.5C 244.5,209.5 244.5,194.5 244.5,179.5 Z"/></g>
<g><path style="opacity:1" fill="#00885b" d="M 277.5,179.5 C 280.167,179.5 282.833,179.5 285.5,179.5C 285.5,194.5 285.5,209.5 285.5,224.5C 282.833,224.5 280.167,224.5 277.5,224.5C 277.5,209.5 277.5,194.5 277.5,179.5 Z"/></g>
<g><path style="opacity:0.949" fill="#7cc0a8" d="M 308.5,178.5 C 312.5,178.5 316.5,178.5 320.5,178.5C 320.5,194.167 320.5,209.833 320.5,225.5C 316.5,225.5 312.5,225.5 308.5,225.5C 308.5,209.833 308.5,194.167 308.5,178.5 Z"/></g>
<g><path style="opacity:1" fill="#00895c" d="M 310.5,179.5 C 313.167,179.5 315.833,179.5 318.5,179.5C 318.5,194.5 318.5,209.5 318.5,224.5C 315.833,224.5 313.167,224.5 310.5,224.5C 310.5,209.5 310.5,194.5 310.5,179.5 Z"/></g>
<g><path style="opacity:0.678" fill="#38a281" d="M 211.5,179.5 C 211.5,179.167 211.5,178.833 211.5,178.5C 214.833,178.5 218.167,178.5 221.5,178.5C 221.5,193.167 221.5,207.833 221.5,222.5C 221.167,222.5 220.833,222.5 220.5,222.5C 220.5,208.167 220.5,193.833 220.5,179.5C 217.5,179.5 214.5,179.5 211.5,179.5 Z"/></g>
<g><path style="opacity:0.055" fill="#6fbaa0" d="M 188.5,235.5 C 188.5,233.833 188.5,232.167 188.5,230.5C 185.167,230.5 181.833,230.5 178.5,230.5C 178.5,232.167 178.5,233.833 178.5,235.5C 176.094,230.364 177.76,228.031 183.5,228.5C 189.24,228.031 190.906,230.364 188.5,235.5 Z"/></g>
<g><path style="opacity:0.055" fill="#50ad8f" d="M 211.5,228.5 C 214.833,228.5 218.167,228.5 221.5,228.5C 221.5,230.833 221.5,233.167 221.5,235.5C 217.958,235.813 214.625,235.479 211.5,234.5C 214.5,234.5 217.5,234.5 220.5,234.5C 220.5,233.167 220.5,231.833 220.5,230.5C 217.5,230.5 214.5,230.5 211.5,230.5C 211.5,229.833 211.5,229.167 211.5,228.5 Z"/></g>
<g><path style="opacity:0.055" fill="#4eac8d" d="M 253.5,228.5 C 253.5,229.167 253.5,229.833 253.5,230.5C 250.5,230.5 247.5,230.5 244.5,230.5C 244.5,231.833 244.5,233.167 244.5,234.5C 247.5,234.5 250.5,234.5 253.5,234.5C 250.375,235.479 247.042,235.813 243.5,235.5C 243.5,233.167 243.5,230.833 243.5,228.5C 246.833,228.5 250.167,228.5 253.5,228.5 Z"/></g>
<g><path style="opacity:0.055" fill="#7bc0a9" d="M 286.5,235.5 C 283.36,236.641 280.027,236.808 276.5,236C 275.409,233.936 275.242,231.769 276,229.5C 279.409,228.378 282.909,228.211 286.5,229C 287.811,231.274 287.811,233.44 286.5,235.5 Z"/></g>
<g><path style="opacity:1" fill="#00875a" d="M 253.5,230.5 C 253.5,231.833 253.5,233.167 253.5,234.5C 250.5,234.5 247.5,234.5 244.5,234.5C 244.5,233.167 244.5,231.833 244.5,230.5C 247.5,230.5 250.5,230.5 253.5,230.5 Z"/></g>
<g><path style="opacity:1" fill="#3b9a72" d="M 188.5,235.5 C 185.167,236.833 181.833,236.833 178.5,235.5C 178.5,233.833 178.5,232.167 178.5,230.5C 181.833,230.5 185.167,230.5 188.5,230.5C 188.5,232.167 188.5,233.833 188.5,235.5 Z"/></g>
<g><path style="opacity:1" fill="#008557" d="M 211.5,230.5 C 214.5,230.5 217.5,230.5 220.5,230.5C 220.5,231.833 220.5,233.167 220.5,234.5C 217.5,234.5 214.5,234.5 211.5,234.5C 211.5,233.167 211.5,231.833 211.5,230.5 Z"/></g>
<g><path style="opacity:1" fill="#0d8a5e" d="M 286.5,235.5 C 283.5,235.5 280.5,235.5 277.5,235.5C 277.5,233.833 277.5,232.167 277.5,230.5C 280.5,230.5 283.5,230.5 286.5,230.5C 286.5,232.167 286.5,233.833 286.5,235.5 Z"/></g>
<g><path style="opacity:0.902" fill="#72bca2" d="M 309.5,228.5 C 312.85,228.335 316.183,228.502 319.5,229C 320.591,231.064 320.758,233.231 320,235.5C 316.591,236.622 313.091,236.789 309.5,236C 308.221,233.502 308.221,231.002 309.5,228.5 Z"/></g>
<g><path style="opacity:1" fill="#008557" d="M 310.5,230.5 C 313.167,230.5 315.833,230.5 318.5,230.5C 318.5,231.833 318.5,233.167 318.5,234.5C 315.833,234.5 313.167,234.5 310.5,234.5C 310.5,233.167 310.5,231.833 310.5,230.5 Z"/></g>
<g><path style="opacity:0.143" fill="#c6e7df" d="M 211.5,228.5 C 211.5,229.167 211.5,229.833 211.5,230.5C 211.5,231.833 211.5,233.167 211.5,234.5C 214.625,235.479 217.958,235.813 221.5,235.5C 218.038,236.482 214.371,236.815 210.5,236.5C 210.194,233.615 210.527,230.948 211.5,228.5 Z"/></g>
<g><path style="opacity:0.142" fill="#c3e5dc" d="M 253.5,228.5 C 254.473,230.948 254.806,233.615 254.5,236.5C 250.629,236.815 246.962,236.482 243.5,235.5C 247.042,235.813 250.375,235.479 253.5,234.5C 253.5,233.167 253.5,231.833 253.5,230.5C 253.5,229.833 253.5,229.167 253.5,228.5 Z"/></g>
<g><path style="opacity:0.502" fill="#70bba0" d="M 151.5,241.5 C 216.5,241.5 281.5,241.5 346.5,241.5C 346.803,246.43 346.469,251.263 345.5,256C 280.834,256.5 216.168,256.667 151.5,256.5C 151.5,251.5 151.5,246.5 151.5,241.5 Z"/></g>
<g><path style="opacity:1" fill="#139168" d="M 152.5,243.5 C 216.665,242.501 280.998,242.168 345.5,242.5C 345.817,246.702 345.483,250.702 344.5,254.5C 344.5,250.833 344.5,247.167 344.5,243.5C 280.5,243.5 216.5,243.5 152.5,243.5 Z"/></g>
<g><path style="opacity:1" fill="#00895c" d="M 152.5,243.5 C 216.5,243.5 280.5,243.5 344.5,243.5C 344.5,247.167 344.5,250.833 344.5,254.5C 280.5,254.5 216.5,254.5 152.5,254.5C 152.5,250.833 152.5,247.167 152.5,243.5 Z"/></g>
<g><path style="opacity:0.322" fill="#b7b7b7" d="M 323.5,285.5 C 323.167,285.5 322.833,285.5 322.5,285.5C 301.167,285.5 279.833,285.5 258.5,285.5C 258.5,290.833 258.5,296.167 258.5,301.5C 258.5,301.833 258.5,302.167 258.5,302.5C 257.51,296.69 257.177,290.69 257.5,284.5C 279.673,284.169 301.673,284.503 323.5,285.5 Z"/></g>
<g><path style="opacity:0.323" fill="#adacad" d="M 338.5,285.5 C 348.319,284.506 358.319,284.173 368.5,284.5C 369.036,287.698 368.369,290.365 366.5,292.5C 367.369,290.283 367.702,287.95 367.5,285.5C 358.5,285.5 349.5,285.5 340.5,285.5C 339.833,285.5 339.167,285.5 338.5,285.5 Z"/></g>
<g><path style="opacity:0.322" fill="#bbbabb" d="M 414.5,292.5 C 414.5,292.167 414.5,291.833 414.5,291.5C 415.461,289.735 415.795,287.735 415.5,285.5C 406.167,285.5 396.833,285.5 387.5,285.5C 387.205,287.735 387.539,289.735 388.5,291.5C 388.5,291.833 388.5,292.167 388.5,292.5C 386.631,290.365 385.964,287.698 386.5,284.5C 396.5,284.5 406.5,284.5 416.5,284.5C 417.036,287.698 416.369,290.365 414.5,292.5 Z"/></g>
<g><path style="opacity:0.149" fill="#878687" d="M 185.5,285.5 C 179.167,285.5 172.833,285.5 166.5,285.5C 166.201,287.604 166.534,289.604 167.5,291.5C 169.657,292.05 171.657,292.717 173.5,293.5C 173.167,293.5 172.833,293.5 172.5,293.5C 165.62,294.48 162.953,291.48 164.5,284.5C 171.687,284.175 178.687,284.509 185.5,285.5 Z"/></g>
<g><path style="opacity:0.698" fill="#797778" d="M 121.5,284.5 C 125.537,285.065 129.203,286.399 132.5,288.5C 128.352,287.901 124.685,286.568 121.5,284.5 Z"/></g>
<g><path style="opacity:0.518" fill="#919091" d="M 322.5,285.5 C 322.833,285.5 323.167,285.5 323.5,285.5C 323.5,291.5 323.5,297.5 323.5,303.5C 319.671,304.069 316.337,303.402 313.5,301.5C 313.833,301.5 314.167,301.5 314.5,301.5C 317.167,301.5 319.833,301.5 322.5,301.5C 322.5,296.167 322.5,290.833 322.5,285.5 Z"/></g>
<g><path style="opacity:1" fill="#231f20" d="M 120.5,284.5 C 120.833,284.5 121.167,284.5 121.5,284.5C 124.685,286.568 128.352,287.901 132.5,288.5C 134.027,288.427 135.027,289.094 135.5,290.5C 136.167,291.833 137.167,292.833 138.5,293.5C 138.427,295.027 139.094,296.027 140.5,296.5C 141.768,302.175 141.768,307.842 140.5,313.5C 139.094,313.973 138.427,314.973 138.5,316.5C 138.167,317.5 137.5,318.167 136.5,318.5C 134.973,318.427 133.973,319.094 133.5,320.5C 133.167,320.5 132.833,320.5 132.5,320.5C 131.624,320.369 130.957,320.702 130.5,321.5C 131.85,322.95 133.516,323.617 135.5,323.5C 136.492,323.328 137.158,323.662 137.5,324.5C 137.833,325.5 138.5,326.167 139.5,326.5C 140.5,326.833 141.167,327.5 141.5,328.5C 141.427,330.027 142.094,331.027 143.5,331.5C 144.292,337.13 144.625,342.797 144.5,348.5C 142.992,350.181 141.992,352.181 141.5,354.5C 140.833,355.833 139.833,356.833 138.5,357.5C 136.973,357.427 135.973,358.094 135.5,359.5C 135.158,360.338 134.492,360.672 133.5,360.5C 116.587,362.375 99.5865,363.041 82.5,362.5C 82.5,360.5 82.5,358.5 82.5,356.5C 85.4802,356.38 88.3135,355.713 91,354.5C 91.1667,344.333 91.3333,334.167 91.5,324C 91.4987,313.477 90.832,303.311 89.5,293.5C 87.4855,292.076 85.1522,291.41 82.5,291.5C 82.5,289.5 82.5,287.5 82.5,285.5C 95.3443,285.829 108.011,285.495 120.5,284.5 Z M 102.5,294.5 C 110.209,294.269 117.876,294.602 125.5,295.5C 126.795,296.488 128.128,297.488 129.5,298.5C 130.295,302.785 130.628,307.119 130.5,311.5C 129.094,311.973 128.427,312.973 128.5,314.5C 126.973,314.427 125.973,315.094 125.5,316.5C 117.876,317.398 110.209,317.731 102.5,317.5C 102.5,309.833 102.5,302.167 102.5,294.5 Z M 130.5,329.5 C 130.833,330.167 131.167,330.833 131.5,331.5C 133.763,337.002 134.096,342.668 132.5,348.5C 129.719,352.056 126.052,353.723 121.5,353.5C 115.167,353.5 108.833,353.5 102.5,353.5C 102.5,344.833 102.5,336.167 102.5,327.5C 110.507,327.334 118.507,327.5 126.5,328C 127.745,328.791 129.078,329.291 130.5,329.5 Z"/></g>
<g><path style="opacity:1" fill="#231f20" d="M 185.5,285.5 C 186.674,286.514 187.34,287.847 187.5,289.5C 187.427,291.027 188.094,292.027 189.5,292.5C 190.338,292.842 190.672,293.508 190.5,294.5C 191.262,298.367 193.262,301.367 196.5,303.5C 197.338,303.842 197.672,304.508 197.5,305.5C 197.427,307.027 198.094,308.027 199.5,308.5C 199.427,310.027 200.094,311.027 201.5,311.5C 202.338,311.842 202.672,312.508 202.5,313.5C 202.427,315.027 203.094,316.027 204.5,316.5C 205.338,316.842 205.672,317.508 205.5,318.5C 205.427,320.027 206.094,321.027 207.5,321.5C 207.427,323.027 208.094,324.027 209.5,324.5C 210.338,324.842 210.672,325.508 210.5,326.5C 210.427,328.027 211.094,329.027 212.5,329.5C 212.427,331.027 213.094,332.027 214.5,332.5C 215.338,332.842 215.672,333.508 215.5,334.5C 215.427,336.027 216.094,337.027 217.5,337.5C 217.427,339.027 218.094,340.027 219.5,340.5C 220.338,340.842 220.672,341.508 220.5,342.5C 220.5,342.833 220.5,343.167 220.5,343.5C 220.821,345.048 221.821,345.715 223.5,345.5C 223.83,327.992 223.497,310.659 222.5,293.5C 221.292,292.766 219.959,292.433 218.5,292.5C 217.432,291.566 216.099,291.232 214.5,291.5C 214.5,289.5 214.5,287.5 214.5,285.5C 223.5,285.5 232.5,285.5 241.5,285.5C 241.5,287.5 241.5,289.5 241.5,291.5C 238.52,291.62 235.687,292.287 233,293.5C 232.5,316.498 232.333,339.498 232.5,362.5C 228.833,362.5 225.167,362.5 221.5,362.5C 221.741,359.966 220.741,358.3 218.5,357.5C 217.326,356.486 216.66,355.153 216.5,353.5C 216.446,351.368 215.446,350.035 213.5,349.5C 210.665,345.836 208.332,341.836 206.5,337.5C 206.13,334.733 204.796,332.733 202.5,331.5C 201.662,331.158 201.328,330.492 201.5,329.5C 201.573,327.973 200.906,326.973 199.5,326.5C 198.662,326.158 198.328,325.492 198.5,324.5C 198.249,322.83 197.582,321.33 196.5,320C 196.833,319.667 197.167,319.333 197.5,319C 195.935,317.588 194.269,316.421 192.5,315.5C 191.662,315.158 191.328,314.492 191.5,313.5C 191.13,310.733 189.796,308.733 187.5,307.5C 186.662,307.158 186.328,306.492 186.5,305.5C 186.631,304.624 186.298,303.957 185.5,303.5C 184.5,320.821 184.167,338.154 184.5,355.5C 185.833,355.5 187.167,355.5 188.5,355.5C 189.568,356.434 190.901,356.768 192.5,356.5C 192.5,358.5 192.5,360.5 192.5,362.5C 183.833,362.5 175.167,362.5 166.5,362.5C 166.5,360.5 166.5,358.5 166.5,356.5C 167.959,356.567 169.292,356.234 170.5,355.5C 171.822,355.67 172.989,355.337 174,354.5C 174.829,333.996 174.663,313.663 173.5,293.5C 171.657,292.717 169.657,292.05 167.5,291.5C 166.534,289.604 166.201,287.604 166.5,285.5C 172.833,285.5 179.167,285.5 185.5,285.5 Z"/></g>
<g><path style="opacity:0.836" fill="#656363" d="M 213.5,285.5 C 213.833,285.5 214.167,285.5 214.5,285.5C 214.5,287.5 214.5,289.5 214.5,291.5C 216.099,291.232 217.432,291.566 218.5,292.5C 218.5,292.833 218.5,293.167 218.5,293.5C 217.07,293.579 215.736,293.246 214.5,292.5C 213.526,290.257 213.192,287.924 213.5,285.5 Z"/></g>
<g><path style="opacity:1" fill="#211d1e" d="M 322.5,285.5 C 322.5,290.833 322.5,296.167 322.5,301.5C 319.833,301.5 317.167,301.5 314.5,301.5C 314.777,298.552 314.444,295.719 313.5,293C 307.584,292.193 301.75,292.359 296,293.5C 295.5,314.164 295.333,334.831 295.5,355.5C 298.206,355.575 300.873,355.908 303.5,356.5C 304.461,358.265 304.795,360.265 304.5,362.5C 295.5,362.5 286.5,362.5 277.5,362.5C 277.201,360.396 277.534,358.396 278.5,356.5C 280.982,355.933 283.316,355.266 285.5,354.5C 286.663,334.337 286.829,314.004 286,293.5C 280.25,292.359 274.416,292.193 268.5,293C 267.556,295.719 267.223,298.552 267.5,301.5C 264.5,301.5 261.5,301.5 258.5,301.5C 258.5,296.167 258.5,290.833 258.5,285.5C 279.833,285.5 301.167,285.5 322.5,285.5 Z"/></g>
<g><path style="opacity:0.902" fill="#5f5d5e" d="M 338.5,285.5 C 339.167,285.5 339.833,285.5 340.5,285.5C 340.144,288.776 341.144,291.443 343.5,293.5C 341.883,292.962 340.216,292.629 338.5,292.5C 338.5,290.167 338.5,287.833 338.5,285.5 Z"/></g>
<g><path style="opacity:1" fill="#242021" d="M 340.5,285.5 C 349.5,285.5 358.5,285.5 367.5,285.5C 367.702,287.95 367.369,290.283 366.5,292.5C 363.881,292.232 361.381,292.565 359,293.5C 358.333,309.833 358.333,326.167 359,342.5C 359.21,344.058 359.71,345.391 360.5,346.5C 360.427,348.027 361.094,349.027 362.5,349.5C 363.833,350.5 365.167,351.5 366.5,352.5C 369.253,355.26 372.753,356.593 377,356.5C 380.857,356.377 384.357,355.377 387.5,353.5C 389.027,353.573 390.027,352.906 390.5,351.5C 391.864,349.809 393.197,348.142 394.5,346.5C 395.222,346.082 395.722,345.416 396,344.5C 396.5,327.17 396.667,309.837 396.5,292.5C 393.794,292.425 391.127,292.092 388.5,291.5C 387.539,289.735 387.205,287.735 387.5,285.5C 396.833,285.5 406.167,285.5 415.5,285.5C 415.795,287.735 415.461,289.735 414.5,291.5C 411.882,291.779 409.382,292.446 407,293.5C 406.765,311.52 406.265,329.52 405.5,347.5C 403.992,349.181 402.992,351.181 402.5,353.5C 401.5,355.167 400.167,356.5 398.5,357.5C 396.566,358.11 394.899,359.11 393.5,360.5C 383.285,364.054 372.952,364.388 362.5,361.5C 360.45,359.453 358.117,357.786 355.5,356.5C 353.833,355.5 352.5,354.167 351.5,352.5C 351.598,350.447 350.931,348.78 349.5,347.5C 348.75,329.517 348.25,311.517 348,293.5C 346.708,292.209 345.542,292.209 344.5,293.5C 344.167,293.5 343.833,293.5 343.5,293.5C 341.144,291.443 340.144,288.776 340.5,285.5 Z"/></g>
<g><path style="opacity:0.004" fill="#8b8a8b" d="M 135.5,290.5 C 137.5,290.5 138.5,291.5 138.5,293.5C 137.167,292.833 136.167,291.833 135.5,290.5 Z"/></g>
<g><path style="opacity:0.898" fill="#939293" d="M 120.5,284.5 C 108.011,285.495 95.3443,285.829 82.5,285.5C 82.5,287.5 82.5,289.5 82.5,291.5C 85.1522,291.41 87.4855,292.076 89.5,293.5C 82.62,294.48 79.9533,291.48 81.5,284.5C 94.5,284.5 107.5,284.5 120.5,284.5 Z"/></g>
<g><path style="opacity:0.573" fill="#949394" d="M 187.5,289.5 C 188.906,289.973 189.573,290.973 189.5,292.5C 188.094,292.027 187.427,291.027 187.5,289.5 Z"/></g>
<g><path style="opacity:1" fill="#5a5859" d="M 101.5,293.5 C 107.319,292.347 113.319,292.181 119.5,293C 121.852,293.24 123.852,294.073 125.5,295.5C 117.876,294.602 110.209,294.269 102.5,294.5C 102.5,293.833 102.167,293.5 101.5,293.5 Z"/></g>
<g><path style="opacity:0.246" fill="#a2a0a2" d="M 218.5,293.5 C 218.5,293.167 218.5,292.833 218.5,292.5C 219.959,292.433 221.292,292.766 222.5,293.5C 222.667,310.503 222.5,327.503 222,344.5C 221.617,343.944 221.117,343.611 220.5,343.5C 220.5,343.167 220.5,342.833 220.5,342.5C 221.661,326.672 221.828,310.672 221,294.5C 220.329,293.748 219.496,293.414 218.5,293.5 Z"/></g>
<g><path style="opacity:0.293" fill="#717172" d="M 388.5,292.5 C 388.5,292.167 388.5,291.833 388.5,291.5C 391.127,292.092 393.794,292.425 396.5,292.5C 396.667,309.837 396.5,327.17 396,344.5C 395.722,345.416 395.222,346.082 394.5,346.5C 395.61,329.191 395.777,311.858 395,294.5C 392.846,293.77 390.679,293.103 388.5,292.5 Z"/></g>
<g><path style="opacity:0.58" fill="#979697" d="M 138.5,293.5 C 139.906,293.973 140.573,294.973 140.5,296.5C 139.094,296.027 138.427,295.027 138.5,293.5 Z"/></g>
<g><path style="opacity:0.333" fill="#acabac" d="M 172.5,293.5 C 172.833,293.5 173.167,293.5 173.5,293.5C 174.663,313.663 174.829,333.996 174,354.5C 172.989,355.337 171.822,355.67 170.5,355.5C 170.5,355.167 170.5,354.833 170.5,354.5C 171.496,354.586 172.329,354.252 173,353.5C 173.82,333.427 173.654,313.427 172.5,293.5 Z"/></g>
<g><path style="opacity:0.961" fill="#454143" d="M 222.5,293.5 C 223.497,310.659 223.83,327.992 223.5,345.5C 221.821,345.715 220.821,345.048 220.5,343.5C 221.117,343.611 221.617,343.944 222,344.5C 222.5,327.503 222.667,310.503 222.5,293.5 Z"/></g>
<g><path style="opacity:0.448" fill="#a2a1a2" d="M 213.5,285.5 C 222.986,284.506 232.652,284.173 242.5,284.5C 242.813,287.247 242.48,289.914 241.5,292.5C 238.961,293.115 236.461,293.782 234,294.5C 233.5,317.498 233.333,340.498 233.5,363.5C 229.298,363.817 225.298,363.483 221.5,362.5C 225.167,362.5 228.833,362.5 232.5,362.5C 232.333,339.498 232.5,316.498 233,293.5C 235.687,292.287 238.52,291.62 241.5,291.5C 241.5,289.5 241.5,287.5 241.5,285.5C 232.5,285.5 223.5,285.5 214.5,285.5C 214.167,285.5 213.833,285.5 213.5,285.5 Z"/></g>
<g><path style="opacity:0.173" fill="#5c595a" d="M 285.5,354.5 C 285.5,353.833 285.167,353.5 284.5,353.5C 284.5,333.833 284.5,314.167 284.5,294.5C 279.167,294.5 273.833,294.5 268.5,294.5C 268.777,297.448 268.444,300.281 267.5,303C 264.304,303.805 261.304,303.638 258.5,302.5C 258.5,302.167 258.5,301.833 258.5,301.5C 261.5,301.5 264.5,301.5 267.5,301.5C 267.223,298.552 267.556,295.719 268.5,293C 274.416,292.193 280.25,292.359 286,293.5C 286.829,314.004 286.663,334.337 285.5,354.5 Z"/></g>
<g><path style="opacity:0.659" fill="#646263" d="M 314.5,301.5 C 314.167,301.5 313.833,301.5 313.5,301.5C 313.007,299.194 312.674,296.861 312.5,294.5C 307.167,294.5 301.833,294.5 296.5,294.5C 296.333,314.169 296.5,333.836 297,353.5C 299.154,354.23 301.321,354.897 303.5,355.5C 303.5,355.833 303.5,356.167 303.5,356.5C 300.873,355.908 298.206,355.575 295.5,355.5C 295.333,334.831 295.5,314.164 296,293.5C 301.75,292.359 307.584,292.193 313.5,293C 314.444,295.719 314.777,298.552 314.5,301.5 Z"/></g>
<g><path style="opacity:0.259" fill="#adaeaf" d="M 344.5,293.5 C 345.542,292.209 346.708,292.209 348,293.5C 348.25,311.517 348.75,329.517 349.5,347.5C 348.698,346.048 348.198,344.382 348,342.5C 347.667,326.5 347.333,310.5 347,294.5C 346.329,293.748 345.496,293.414 344.5,293.5 Z"/></g>
<g><path style="opacity:0.412" fill="#a09e9f" d="M 366.5,292.5 C 364.444,293.216 362.277,293.883 360,294.5C 359.254,311.851 359.421,329.184 360.5,346.5C 359.71,345.391 359.21,344.058 359,342.5C 358.333,326.167 358.333,309.833 359,293.5C 361.381,292.565 363.881,292.232 366.5,292.5 Z"/></g>
<g><path style="opacity:0.498" fill="#676465" d="M 414.5,291.5 C 414.5,291.833 414.5,292.167 414.5,292.5C 412.444,293.216 410.277,293.883 408,294.5C 407.667,310.833 407.333,327.167 407,343.5C 406.79,345.058 406.29,346.391 405.5,347.5C 406.265,329.52 406.765,311.52 407,293.5C 409.382,292.446 411.882,291.779 414.5,291.5 Z"/></g>
<g><path style="opacity:1" fill="#696668" d="M 190.5,294.5 C 193.241,296.975 195.241,299.975 196.5,303.5C 193.262,301.367 191.262,298.367 190.5,294.5 Z"/></g>
<g><path style="opacity:0.384" fill="#8d8b8c" d="M 140.5,296.5 C 141.991,299.186 142.657,302.186 142.5,305.5C 142.713,308.527 142.047,311.193 140.5,313.5C 141.768,307.842 141.768,302.175 140.5,296.5 Z"/></g>
<g><path style="opacity:0.055" fill="#aaaaab" d="M 129.5,298.5 C 131.033,300.634 131.7,303.134 131.5,306C 131.494,308.033 131.161,309.866 130.5,311.5C 130.628,307.119 130.295,302.785 129.5,298.5 Z"/></g>
<g><path style="opacity:0.988" fill="#7d7b7c" d="M 187.5,307.5 C 189.796,308.733 191.13,310.733 191.5,313.5C 189.684,311.882 188.351,309.882 187.5,307.5 Z"/></g>
<g><path style="opacity:0.549" fill="#9c9c9c" d="M 197.5,305.5 C 198.906,305.973 199.573,306.973 199.5,308.5C 198.094,308.027 197.427,307.027 197.5,305.5 Z"/></g>
<g><path style="opacity:0.321" fill="#ababac" d="M 186.5,305.5 C 185.339,321.328 185.172,337.328 186,353.5C 186.671,354.252 187.504,354.586 188.5,354.5C 188.5,354.833 188.5,355.167 188.5,355.5C 187.167,355.5 185.833,355.5 184.5,355.5C 184.167,338.154 184.5,320.821 185.5,303.5C 186.298,303.957 186.631,304.624 186.5,305.5 Z"/></g>
<g><path style="opacity:0.431" fill="#a09fa0" d="M 199.5,308.5 C 200.906,308.973 201.573,309.973 201.5,311.5C 200.094,311.027 199.427,310.027 199.5,308.5 Z"/></g>
<g><path style="opacity:0.82" fill="#959495" d="M 130.5,311.5 C 130.573,313.027 129.906,314.027 128.5,314.5C 128.427,312.973 129.094,311.973 130.5,311.5 Z"/></g>
<g><path style="opacity:0.031" fill="#a2a1a2" d="M 140.5,313.5 C 140.573,315.027 139.906,316.027 138.5,316.5C 138.427,314.973 139.094,313.973 140.5,313.5 Z"/></g>
<g><path style="opacity:0.761" fill="#939394" d="M 128.5,314.5 C 128.027,315.906 127.027,316.573 125.5,316.5C 125.973,315.094 126.973,314.427 128.5,314.5 Z"/></g>
<g><path style="opacity:0.522" fill="#9c9b9c" d="M 202.5,313.5 C 203.906,313.973 204.573,314.973 204.5,316.5C 203.094,316.027 202.427,315.027 202.5,313.5 Z"/></g>
<g><path style="opacity:0.404" fill="#999999" d="M 101.5,293.5 C 102.167,293.5 102.5,293.833 102.5,294.5C 102.5,302.167 102.5,309.833 102.5,317.5C 110.209,317.731 117.876,317.398 125.5,316.5C 125.082,317.222 124.416,317.722 123.5,318C 116.174,318.5 108.841,318.666 101.5,318.5C 101.5,310.167 101.5,301.833 101.5,293.5 Z"/></g>
<g><path style="opacity:1" fill="#545152" d="M 192.5,315.5 C 194.269,316.421 195.935,317.588 197.5,319C 197.167,319.333 196.833,319.667 196.5,320C 197.582,321.33 198.249,322.83 198.5,324.5C 195.769,322.054 193.769,319.054 192.5,315.5 Z"/></g>
<g><path style="opacity:0.004" fill="#abaaab" d="M 136.5,318.5 C 136.027,319.906 135.027,320.573 133.5,320.5C 133.973,319.094 134.973,318.427 136.5,318.5 Z"/></g>
<g><path style="opacity:0.647" fill="#8f8e8f" d="M 205.5,318.5 C 206.906,318.973 207.573,319.973 207.5,321.5C 206.094,321.027 205.427,320.027 205.5,318.5 Z"/></g>
<g><path style="opacity:0.637" fill="#7a797a" d="M 132.5,320.5 C 133.306,321.728 134.306,322.728 135.5,323.5C 133.516,323.617 131.85,322.95 130.5,321.5C 130.957,320.702 131.624,320.369 132.5,320.5 Z"/></g>
<g><path style="opacity:0.51" fill="#919090" d="M 207.5,321.5 C 208.906,321.973 209.573,322.973 209.5,324.5C 208.094,324.027 207.427,323.027 207.5,321.5 Z"/></g>
<g><path style="opacity:0.008" fill="#b6b6b7" d="M 137.5,324.5 C 138.833,324.5 139.5,325.167 139.5,326.5C 138.5,326.167 137.833,325.5 137.5,324.5 Z"/></g>
<g><path style="opacity:0.18" fill="#b3b2b2" d="M 130.5,329.5 C 129.078,329.291 127.745,328.791 126.5,328C 118.507,327.5 110.507,327.334 102.5,327.5C 102.5,336.167 102.5,344.833 102.5,353.5C 102.5,354.167 102.167,354.5 101.5,354.5C 101.5,345.167 101.5,335.833 101.5,326.5C 110.173,326.334 118.84,326.5 127.5,327C 128.942,327.377 129.942,328.21 130.5,329.5 Z"/></g>
<g><path style="opacity:0.278" fill="#a1a1a2" d="M 199.5,326.5 C 200.906,326.973 201.573,327.973 201.5,329.5C 200.094,329.027 199.427,328.027 199.5,326.5 Z"/></g>
<g><path style="opacity:0.616" fill="#8e8d8e" d="M 210.5,326.5 C 211.906,326.973 212.573,327.973 212.5,329.5C 211.094,329.027 210.427,328.027 210.5,326.5 Z"/></g>
<g><path style="opacity:0.475" fill="#a2a1a1" d="M 141.5,328.5 C 142.906,328.973 143.573,329.973 143.5,331.5C 142.094,331.027 141.427,330.027 141.5,328.5 Z"/></g>
<g><path style="opacity:0.996" fill="#787778" d="M 202.5,331.5 C 204.796,332.733 206.13,334.733 206.5,337.5C 204.684,335.882 203.351,333.882 202.5,331.5 Z"/></g>
<g><path style="opacity:0.506" fill="#9f9fa0" d="M 212.5,329.5 C 213.906,329.973 214.573,330.973 214.5,332.5C 213.094,332.027 212.427,331.027 212.5,329.5 Z"/></g>
<g><path style="opacity:0.627" fill="#858486" d="M 215.5,334.5 C 216.906,334.973 217.573,335.973 217.5,337.5C 216.094,337.027 215.427,336.027 215.5,334.5 Z"/></g>
<g><path style="opacity:0.835" fill="#7d7b7c" d="M 143.5,331.5 C 146.402,337.102 146.736,342.769 144.5,348.5C 144.625,342.797 144.292,337.13 143.5,331.5 Z"/></g>
<g><path style="opacity:0.486" fill="#a0a0a1" d="M 217.5,337.5 C 218.906,337.973 219.573,338.973 219.5,340.5C 218.094,340.027 217.427,339.027 217.5,337.5 Z"/></g>
<g><path style="opacity:0.843" fill="#787677" d="M 131.5,331.5 C 132.75,331.577 133.583,332.244 134,333.5C 136,338.167 136,342.833 134,347.5C 133.617,348.056 133.117,348.389 132.5,348.5C 134.096,342.668 133.763,337.002 131.5,331.5 Z"/></g>
<g><path style="opacity:0.204" fill="#bcbcbc" d="M 349.5,347.5 C 350.931,348.78 351.598,350.447 351.5,352.5C 350.069,351.22 349.402,349.553 349.5,347.5 Z"/></g>
<g><path style="opacity:0.537" fill="#9b9a9b" d="M 360.5,346.5 C 361.906,346.973 362.573,347.973 362.5,349.5C 361.094,349.027 360.427,348.027 360.5,346.5 Z"/></g>
<g><path style="opacity:0.984" fill="#828182" d="M 213.5,349.5 C 215.446,350.035 216.446,351.368 216.5,353.5C 215.026,352.564 214.026,351.23 213.5,349.5 Z"/></g>
<g><path style="opacity:0.373" fill="#9a9899" d="M 405.5,347.5 C 405.539,350.089 404.539,352.089 402.5,353.5C 402.992,351.181 403.992,349.181 405.5,347.5 Z"/></g>
<g><path style="opacity:0.373" fill="#a09fa0" d="M 144.5,348.5 C 144.539,351.089 143.539,353.089 141.5,354.5C 141.992,352.181 142.992,350.181 144.5,348.5 Z"/></g>
<g><path style="opacity:0.663" fill="#8a8889" d="M 132.5,348.5 C 131.069,352.723 128.069,354.723 123.5,354.5C 122.508,354.672 121.842,354.338 121.5,353.5C 126.052,353.723 129.719,352.056 132.5,348.5 Z"/></g>
<g><path style="opacity:0.788" fill="#8e8c8d" d="M 390.5,351.5 C 390.027,352.906 389.027,353.573 387.5,353.5C 387.973,352.094 388.973,351.427 390.5,351.5 Z"/></g>
<g><path style="opacity:0.902" fill="#565556" d="M 102.5,353.5 C 108.833,353.5 115.167,353.5 121.5,353.5C 121.842,354.338 122.508,354.672 123.5,354.5C 116.167,355.833 108.833,355.833 101.5,354.5C 102.167,354.5 102.5,354.167 102.5,353.5 Z"/></g>
<g><path style="opacity:0.78" fill="#858485" d="M 170.5,354.5 C 170.5,354.833 170.5,355.167 170.5,355.5C 169.292,356.234 167.959,356.567 166.5,356.5C 166.5,358.5 166.5,360.5 166.5,362.5C 175.167,362.5 183.833,362.5 192.5,362.5C 193.167,362.5 193.833,362.5 194.5,362.5C 184.681,363.494 174.681,363.827 164.5,363.5C 164.5,360.833 164.5,358.167 164.5,355.5C 166.5,355.167 168.5,354.833 170.5,354.5 Z"/></g>
<g><path style="opacity:0.78" fill="#6d6b6c" d="M 188.5,354.5 C 190.5,354.833 192.5,355.167 194.5,355.5C 194.5,357.833 194.5,360.167 194.5,362.5C 193.833,362.5 193.167,362.5 192.5,362.5C 192.5,360.5 192.5,358.5 192.5,356.5C 190.901,356.768 189.568,356.434 188.5,355.5C 188.5,355.167 188.5,354.833 188.5,354.5 Z"/></g>
<g><path style="opacity:0.922" fill="#737273" d="M 366.5,352.5 C 373.349,354.82 380.349,355.154 387.5,353.5C 384.357,355.377 380.857,356.377 377,356.5C 372.753,356.593 369.253,355.26 366.5,352.5 Z"/></g>
<g><path style="opacity:1" fill="#8a8889" d="M 218.5,357.5 C 220.741,358.3 221.741,359.966 221.5,362.5C 220.263,361.035 219.263,359.368 218.5,357.5 Z"/></g>
<g><path style="opacity:0.082" fill="#bababa" d="M 138.5,357.5 C 138.027,358.906 137.027,359.573 135.5,359.5C 135.973,358.094 136.973,357.427 138.5,357.5 Z"/></g>
<g><path style="opacity:0.239" fill="#7f7d7e" d="M 355.5,356.5 C 358.117,357.786 360.45,359.453 362.5,361.5C 359.326,360.99 356.992,359.323 355.5,356.5 Z"/></g>
<g><path style="opacity:0.012" fill="#919091" d="M 398.5,357.5 C 397.599,359.727 395.933,360.727 393.5,360.5C 394.899,359.11 396.566,358.11 398.5,357.5 Z"/></g>
<g><path style="opacity:0.412" fill="#9c9b9c" d="M 89.5,293.5 C 90.832,303.311 91.4987,313.477 91.5,324C 91.3333,334.167 91.1667,344.333 91,354.5C 88.3135,355.713 85.4802,356.38 82.5,356.5C 82.5,358.5 82.5,360.5 82.5,362.5C 99.5865,363.041 116.587,362.375 133.5,360.5C 131.723,361.6 129.723,362.434 127.5,363C 112.17,363.5 96.837,363.667 81.5,363.5C 81.1866,360.753 81.52,358.086 82.5,355.5C 85.0393,354.885 87.5393,354.218 90,353.5C 90.8202,333.427 90.6536,313.427 89.5,293.5 Z"/></g>
<g><path style="opacity:0.412" fill="#a2a1a2" d="M 284.5,353.5 C 285.167,353.5 285.5,353.833 285.5,354.5C 283.316,355.266 280.982,355.933 278.5,356.5C 277.534,358.396 277.201,360.396 277.5,362.5C 286.5,362.5 295.5,362.5 304.5,362.5C 304.795,360.265 304.461,358.265 303.5,356.5C 303.5,356.167 303.5,355.833 303.5,355.5C 305.369,357.635 306.036,360.302 305.5,363.5C 295.833,363.5 286.167,363.5 276.5,363.5C 276.187,360.753 276.52,358.086 277.5,355.5C 279.863,354.83 282.196,354.163 284.5,353.5 Z"/></g>
<g><path style="opacity:0.09" fill="#898789" d="M 393.5,360.5 C 388.806,363.893 383.473,365.227 377.5,364.5C 372.08,364.939 367.08,363.939 362.5,361.5C 372.952,364.388 383.285,364.054 393.5,360.5 Z"/></g>
<g><path style="opacity:1" fill="#5dad8e" d="M 235.5,385.5 C 232.75,386.049 231.083,387.715 230.5,390.5C 229.603,389.402 228.77,389.402 228,390.5C 227.444,392.885 227.61,395.218 228.5,397.5C 227.883,397.389 227.383,397.056 227,396.5C 225.535,389.41 228.368,385.743 235.5,385.5 Z"/></g>
<g><path style="opacity:1" fill="#168e64" d="M 210.5,386.5 C 210.5,391.833 210.5,397.167 210.5,402.5C 210.918,403.222 211.584,403.722 212.5,404C 207.706,405.007 205.706,404.84 206.5,403.5C 206.5,398.833 206.5,394.167 206.5,389.5C 205.325,389.719 204.325,389.386 203.5,388.5C 205.707,387.365 208.04,386.699 210.5,386.5 Z"/></g>
<g><path style="opacity:1" fill="#0b875a" d="M 261.5,388.5 C 259.564,389.259 257.731,390.259 256,391.5C 255.5,391.167 255,390.833 254.5,390.5C 255.127,389.583 255.461,388.583 255.5,387.5C 257.199,387.38 258.865,387.046 260.5,386.5C 262.418,386.861 262.751,387.528 261.5,388.5 Z"/></g>
<g><path style="opacity:1" fill="#56a989" d="M 266.5,394.5 C 265.581,397.089 263.914,399.089 261.5,400.5C 261.368,397.993 260.368,397.326 258.5,398.5C 260.238,396.079 261.571,393.412 262.5,390.5C 262.167,389.833 261.833,389.167 261.5,388.5C 262.751,387.528 262.418,386.861 260.5,386.5C 258.865,387.046 257.199,387.38 255.5,387.5C 259.502,383.553 263.335,383.887 267,388.5C 267.789,390.712 267.622,392.712 266.5,394.5 Z"/></g>
<g><path style="opacity:1" fill="#088659" d="M 266.5,394.5 C 263.21,393.344 262.71,391.344 265,388.5C 266.319,390.25 266.819,392.25 266.5,394.5 Z"/></g>
<g><path style="opacity:1" fill="#108a5e" d="M 235.5,385.5 C 236.167,385.833 236.833,386.167 237.5,386.5C 239.76,391.971 240.093,397.638 238.5,403.5C 238.5,404.167 238.167,404.5 237.5,404.5C 234.753,404.813 232.086,404.48 229.5,403.5C 231.423,402.692 233.423,402.192 235.5,402C 236.337,400.989 236.67,399.822 236.5,398.5C 233.721,398.721 231.054,398.388 228.5,397.5C 227.61,395.218 227.444,392.885 228,390.5C 228.77,389.402 229.603,389.402 230.5,390.5C 231.083,387.715 232.75,386.049 235.5,385.5 Z M 235.5,390.5 C 235.5,392.167 235.5,393.833 235.5,395.5C 234.041,395.567 232.708,395.234 231.5,394.5C 231.167,391.5 232.5,390.167 235.5,390.5 Z"/></g>
<g><path style="opacity:1" fill="#168b5f" d="M 291.5,386.5 C 293.5,386.5 294.5,387.5 294.5,389.5C 294.717,394.23 294.383,398.897 293.5,403.5C 293.027,404.906 292.027,405.573 290.5,405.5C 287.728,404.918 285.061,403.918 282.5,402.5C 282.334,398.154 282.501,393.821 283,389.5C 285.196,386.875 288.03,385.875 291.5,386.5 Z M 286.5,401.5 C 287.5,401.5 288.5,401.5 289.5,401.5C 289.5,397.833 289.5,394.167 289.5,390.5C 288.5,390.5 287.5,390.5 286.5,390.5C 286.5,394.167 286.5,397.833 286.5,401.5 Z"/></g>
<g><path style="opacity:0.314" fill="#9fd1c1" d="M 255.5,387.5 C 255.461,388.583 255.127,389.583 254.5,390.5C 255,390.833 255.5,391.167 256,391.5C 257.731,390.259 259.564,389.259 261.5,388.5C 261.833,389.167 262.167,389.833 262.5,390.5C 259.865,391.683 257.198,392.516 254.5,393C 253.02,390.765 253.353,388.932 255.5,387.5 Z"/></g>
<g><path style="opacity:0.322" fill="#6fbaa1" d="M 210.5,386.5 C 208.04,386.699 205.707,387.365 203.5,388.5C 204.325,389.386 205.325,389.719 206.5,389.5C 206.5,394.167 206.5,398.833 206.5,403.5C 205.706,404.84 207.706,405.007 212.5,404C 211.584,403.722 210.918,403.222 210.5,402.5C 211.833,402.5 213.167,402.5 214.5,402.5C 214.67,403.822 214.337,404.989 213.5,406C 210.167,406.667 206.833,406.667 203.5,406C 202.663,404.989 202.33,403.822 202.5,402.5C 203.5,402.5 204.5,402.5 205.5,402.5C 205.5,398.5 205.5,394.5 205.5,390.5C 204.5,390.5 203.5,390.5 202.5,390.5C 202.5,389.167 202.5,387.833 202.5,386.5C 205.352,385.742 208.019,385.742 210.5,386.5 Z"/></g>
<g><path style="opacity:0.71" fill="#79c1ab" d="M 235.5,390.5 C 232.5,390.167 231.167,391.5 231.5,394.5C 230.566,393.432 230.232,392.099 230.5,390.5C 232.332,388.043 233.999,388.043 235.5,390.5 Z"/></g>
<g><path style="opacity:0.824" fill="#69b89d" d="M 237.5,386.5 C 238.458,386.953 239.292,387.619 240,388.5C 240.667,393.167 240.667,397.833 240,402.5C 239.617,403.056 239.117,403.389 238.5,403.5C 240.093,397.638 239.76,391.971 237.5,386.5 Z"/></g>
<g><path style="opacity:0.719" fill="#84c6b0" d="M 291.5,386.5 C 288.03,385.875 285.196,386.875 283,389.5C 282.501,393.821 282.334,398.154 282.5,402.5C 280.057,398.06 279.89,393.393 282,388.5C 284.901,384.888 288.067,384.221 291.5,386.5 Z"/></g>
<g><path style="opacity:0.494" fill="#a0d5c6" d="M 294.5,389.5 C 295.647,393.646 295.814,397.98 295,402.5C 294.617,403.056 294.117,403.389 293.5,403.5C 294.383,398.897 294.717,394.23 294.5,389.5 Z"/></g>
<g><path style="opacity:0.356" fill="#8fcab8" d="M 286.5,401.5 C 285.191,397.649 285.191,393.649 286.5,389.5C 288.306,388.141 289.806,388.475 291,390.5C 291.667,393.833 291.667,397.167 291,400.5C 289.73,402.578 288.23,402.912 286.5,401.5 Z M 286.5,401.5 C 287.5,401.5 288.5,401.5 289.5,401.5C 289.5,397.833 289.5,394.167 289.5,390.5C 288.5,390.5 287.5,390.5 286.5,390.5C 286.5,394.167 286.5,397.833 286.5,401.5 Z"/></g>
<g><path style="opacity:0.376" fill="#75bfa8" d="M 235.5,390.5 C 236.461,392.265 236.795,394.265 236.5,396.5C 234.219,396.923 232.552,396.256 231.5,394.5C 232.708,395.234 234.041,395.567 235.5,395.5C 235.5,393.833 235.5,392.167 235.5,390.5 Z"/></g>
<g><path style="opacity:0.259" fill="#95cebc" d="M 155.5,393.5 C 164.5,393.5 173.5,393.5 182.5,393.5C 182.5,395.167 182.5,396.833 182.5,398.5C 173.494,398.666 164.494,398.5 155.5,398C 154.272,396.51 154.272,395.01 155.5,393.5 Z"/></g>
<g><path style="opacity:1" fill="#198c61" d="M 156.5,394.5 C 164.833,394.5 173.167,394.5 181.5,394.5C 181.5,395.5 181.5,396.5 181.5,397.5C 173.167,397.5 164.833,397.5 156.5,397.5C 156.5,396.5 156.5,395.5 156.5,394.5 Z"/></g>
<g><path style="opacity:0.259" fill="#95cebc" d="M 314.5,393.5 C 323.833,393.5 333.167,393.5 342.5,393.5C 342.5,395.167 342.5,396.833 342.5,398.5C 333.494,398.666 324.494,398.5 315.5,398C 314.62,396.644 314.286,395.144 314.5,393.5 Z"/></g>
<g><path style="opacity:1" fill="#1a8c61" d="M 316.5,394.5 C 324.833,394.5 333.167,394.5 341.5,394.5C 341.5,395.5 341.5,396.5 341.5,397.5C 333.167,397.5 324.833,397.5 316.5,397.5C 316.5,396.5 316.5,395.5 316.5,394.5 Z"/></g>
<g><path style="opacity:0.537" fill="#7cc1a9" d="M 228.5,397.5 C 231.054,398.388 233.721,398.721 236.5,398.5C 236.67,399.822 236.337,400.989 235.5,402C 233.423,402.192 231.423,402.692 229.5,403.5C 232.086,404.48 234.753,404.813 237.5,404.5C 235.545,406.326 233.212,406.826 230.5,406C 228.893,404.951 228.227,403.451 228.5,401.5C 230.735,401.795 232.735,401.461 234.5,400.5C 231.607,400.969 229.607,399.969 228.5,397.5 Z"/></g>
<g><path style="opacity:1" fill="#0c875a" d="M 261.5,400.5 C 258.597,402.245 258.93,403.245 262.5,403.5C 263.994,403.291 265.161,402.624 266,401.5C 266.483,402.448 266.649,403.448 266.5,404.5C 262.486,404.666 258.486,404.499 254.5,404C 255.823,403.184 256.489,402.017 256.5,400.5C 256.833,399.5 257.5,398.833 258.5,398.5C 260.368,397.326 261.368,397.993 261.5,400.5 Z"/></g>
<g><path style="opacity:0.882" fill="#69b69a" d="M 256.5,400.5 C 256.489,402.017 255.823,403.184 254.5,404C 258.486,404.499 262.486,404.666 266.5,404.5C 266.649,403.448 266.483,402.448 266,401.5C 265.161,402.624 263.994,403.291 262.5,403.5C 258.93,403.245 258.597,402.245 261.5,400.5C 261.735,401.097 262.235,401.43 263,401.5C 264.597,400.115 266.43,399.449 268.5,399.5C 268.756,401.792 268.423,403.959 267.5,406C 263.167,406.667 258.833,406.667 254.5,406C 253.066,403.472 253.733,401.638 256.5,400.5 Z"/></g>
<g><path style="opacity:0.98" fill="#60b294" d="M 282.5,402.5 C 285.061,403.918 287.728,404.918 290.5,405.5C 288.274,406.559 285.941,406.392 283.5,405C 282.748,404.329 282.414,403.496 282.5,402.5 Z"/></g>
</svg>
