<svg version="1.0" xmlns="http://www.w3.org/2000/svg"
 width="48.000000pt" height="48.000000pt" viewBox="0 0 48.000000 48.000000"
 preserveAspectRatio="xMidYMid meet">

<g transform="translate(0.000000,48.000000) scale(0.100000,-0.100000)"
fill="#000000" stroke="none">
<path d="M20 240 l0 -150 220 0 220 0 0 150 0 150 -220 0 -220 0 0 -150z m164
109 c-3 -5 -10 -7 -15 -3 -5 3 -7 10 -3 15 3 5 10 7 15 3 5 -3 7 -10 3 -15z
m-74 -24 c0 -9 9 -15 23 -15 19 -1 20 -2 7 -13 -9 -7 -14 -21 -12 -32 4 -17 2
-18 -12 -6 -13 11 -19 11 -32 0 -14 -12 -16 -11 -12 6 2 11 -3 25 -12 32 -13
11 -12 12 8 13 13 0 22 6 22 15 0 8 5 15 10 15 6 0 10 -7 10 -15z m114 -16
c-3 -5 -10 -7 -15 -3 -5 3 -7 10 -3 15 3 5 10 7 15 3 5 -3 7 -10 3 -15z m0
-50 c-3 -5 -10 -7 -15 -3 -5 3 -7 10 -3 15 3 5 10 7 15 3 5 -3 7 -10 3 -15z
m-40 -40 c-3 -5 -10 -7 -15 -3 -5 3 -7 10 -3 15 3 5 10 7 15 3 5 -3 7 -10 3
-15z"/>
</g>
</svg>
